<svg width="231" height="92" viewBox="0 0 231 92" fill="none" xmlns="http://www.w3.org/2000/svg">
<rect x="0.222839" width="230.109" height="91.5486" rx="5.77333" fill="#060410"/>
<mask id="mask0_1_5312" style="mask-type:luminance" maskUnits="userSpaceOnUse" x="16" y="28" width="43" height="36">
<path d="M16.718 28.4531H58.3189V63.5882H16.718V28.4531Z" fill="white"/>
</mask>
<g mask="url(#mask0_1_5312)">
<mask id="mask1_1_5312" style="mask-type:luminance" maskUnits="userSpaceOnUse" x="16" y="46" width="26" height="18">
<path d="M16.718 46.0205L28.9348 63.588L41.5508 56.0021L34.4443 46.0205H16.718Z" fill="white"/>
</mask>
<g mask="url(#mask1_1_5312)">
<path d="M16.718 46.0205H41.5508V63.588H16.718V46.0205Z" fill="url(#paint0_linear_1_5312)"/>
</g>
<mask id="mask2_1_5312" style="mask-type:luminance" maskUnits="userSpaceOnUse" x="28" y="46" width="31" height="18">
<path d="M28.9349 63.588H46.3418L58.319 46.0205L28.9349 63.588Z" fill="white"/>
</mask>
<g mask="url(#mask2_1_5312)">
<path d="M28.9349 46.0205H58.319V63.588H28.9349V46.0205Z" fill="url(#paint1_linear_1_5312)"/>
</g>
<mask id="mask3_1_5312" style="mask-type:luminance" maskUnits="userSpaceOnUse" x="16" y="28" width="26" height="19">
<path d="M28.9348 28.4541L16.718 46.0216H34.4443L41.5508 36.0401L28.9348 28.4541Z" fill="white"/>
</mask>
<g mask="url(#mask3_1_5312)">
<path d="M16.718 28.4541H41.5508V46.0216H16.718V28.4541Z" fill="#A6A6A6"/>
</g>
<mask id="mask4_1_5312" style="mask-type:luminance" maskUnits="userSpaceOnUse" x="28" y="28" width="31" height="19">
<path d="M28.9349 28.4541L58.3191 46.0216L46.3418 28.4541H28.9349Z" fill="white"/>
</mask>
<g mask="url(#mask4_1_5312)">
<path d="M28.9349 28.4541H58.3191V46.0216H28.9349V28.4541Z" fill="url(#paint2_linear_1_5312)"/>
</g>
</g>
<mask id="mask5_1_5312" style="mask-type:luminance" maskUnits="userSpaceOnUse" x="63" y="31" width="151" height="33">
<path d="M63.9348 31.0088H213.011V63.5886H63.9348V31.0088Z" fill="white"/>
</mask>
<g mask="url(#mask5_1_5312)">
<mask id="mask6_1_5312" style="mask-type:luminance" maskUnits="userSpaceOnUse" x="63" y="31" width="151" height="33">
<path d="M63.9348 31.0098H213.011V63.5896H63.9348V31.0098Z" fill="white"/>
</mask>
<g mask="url(#mask6_1_5312)">
<path d="M143.384 37.398H146.338V55.0454H143.384V37.398ZM132.604 36.9987C130.688 36.9987 128.931 37.6375 127.494 38.8353V37.398H124.539V55.0454H127.494V45.0638C127.494 42.1891 129.809 39.9532 132.604 39.9532C135.399 39.9532 137.714 42.269 137.714 45.0638V55.0454H140.669V45.0638C140.669 40.5921 137.076 36.9987 132.604 36.9987ZM118.631 37.3181H121.585V54.3267C121.505 59.3574 117.433 63.4299 112.402 63.5097C108.41 63.5896 104.737 60.9544 103.619 57.1215H106.813C107.851 59.2775 110.007 60.635 112.402 60.5552C115.836 60.4753 118.551 57.6805 118.71 54.2468V52.8095C114.958 56.2431 109.129 56.0834 105.695 52.3304C102.262 48.5773 102.421 42.7481 106.174 39.3144C109.688 36.0405 115.197 36.0405 118.71 39.3144L118.631 37.3181ZM118.631 46.1817C118.631 42.7481 115.836 39.8734 112.402 39.8734C108.969 39.8734 106.094 42.6682 106.094 46.1019C106.094 49.5355 108.889 52.4102 112.402 52.4102C115.836 52.4102 118.631 49.6154 118.631 46.1817ZM73.1171 39.8734C75.5125 39.8734 77.7483 41.3107 78.7863 43.4667H81.9004C80.4631 38.5957 75.273 35.8009 70.4023 37.3181C65.5315 38.7555 62.7368 43.9459 64.254 48.8169C65.7711 53.6879 70.8814 56.4827 75.7521 54.9655C78.7065 54.0871 81.0221 51.7714 81.9004 48.8169H78.7863C77.3491 51.9311 73.5962 53.2886 70.4821 51.8513C67.368 50.4139 66.0106 46.6608 67.4479 43.5466C68.4859 41.3107 70.6418 39.8734 73.1171 39.8734ZM101.783 46.1817C101.783 51.2923 97.6305 55.3648 92.6001 55.3648C87.4898 55.3648 83.4175 51.2124 83.4175 46.1817C83.4175 41.151 87.4099 36.9987 92.5202 36.9987C97.6305 36.9987 101.783 41.0712 101.783 46.1817ZM98.8282 46.1817C98.8282 42.7481 96.0335 39.8734 92.6001 39.8734C89.1666 39.8734 86.2921 42.6682 86.2921 46.1019C86.2921 49.5355 89.0867 52.4102 92.5202 52.4102C96.0335 52.4102 98.8282 49.6154 98.8282 46.1817ZM195.045 36.9987C193.129 36.9987 191.372 37.6375 189.935 38.8353V37.398H186.981V55.0454H189.935V45.0638C189.935 42.1891 192.251 39.8734 195.045 39.8734C197.92 39.8734 200.235 42.1891 200.235 44.9839V54.9655H203.19V45.0638C203.11 40.5921 199.517 36.9987 195.045 36.9987ZM181.072 37.398H184.026V55.0454H181.072V52.9692C177.319 56.4028 171.49 56.2431 168.057 52.4901C164.623 48.737 164.783 42.9078 168.536 39.4741C170.213 37.8771 172.448 36.9987 174.764 36.9987C177.079 36.9987 179.315 37.8771 181.072 39.4741V37.398ZM181.072 46.1817C181.072 42.7481 178.277 39.9532 174.764 39.9532C171.33 39.9532 168.536 42.7481 168.536 46.2616C168.536 49.6952 171.33 52.4901 174.764 52.4901C178.277 52.4102 181.072 49.6154 181.072 46.1817ZM212.931 40.2727V37.3181H208.54V32.527H205.585V49.1363C205.585 52.4102 208.22 55.0454 211.494 55.0454H212.931V52.0908H211.494C209.897 52.0908 208.54 50.7333 208.54 49.1363V40.2727H212.931ZM144.821 31.0098C143.703 31.0098 142.904 31.8881 142.904 32.9262C142.904 34.0442 143.783 34.8427 144.821 34.8427C145.939 34.8427 146.737 33.9643 146.737 32.9262C146.817 31.8881 145.939 31.0098 144.821 31.0098C144.901 31.0098 144.901 31.0098 144.821 31.0098ZM163.984 37.398H149.292V40.3525H160.152L149.292 52.0908V55.0454H163.984V52.0908H153.045L163.904 40.3525L163.984 37.398Z" fill="#A6A6A6"/>
</g>
</g>
<defs>
<linearGradient id="paint0_linear_1_5312" x1="16.7239" y1="54.7845" x2="41.5618" y2="54.7845" gradientUnits="userSpaceOnUse">
<stop stop-color="#A6A6A6"/>
<stop offset="1" stop-color="#8A8C8C"/>
</linearGradient>
<linearGradient id="paint1_linear_1_5312" x1="28.929" y1="54.7845" x2="58.3512" y2="54.7845" gradientUnits="userSpaceOnUse">
<stop stop-color="#A6A6A6"/>
<stop offset="1" stop-color="#828282"/>
</linearGradient>
<linearGradient id="paint2_linear_1_5312" x1="28.9291" y1="37.2246" x2="58.3512" y2="37.2246" gradientUnits="userSpaceOnUse">
<stop stop-color="#A6A6A6"/>
<stop offset="0.625" stop-color="#878787"/>
</linearGradient>
</defs>
</svg>
