<svg width="185" height="51" viewBox="0 0 185 51" fill="none" xmlns="http://www.w3.org/2000/svg">
<path d="M25.3911 44.6042C16.8688 42.6246 -6.11434 33.6326 1.53551 23.1643C16.4787 36.0375 35.7453 42.7692 55.4539 42.0033L63.6406 41.6851V43.195C62.0301 48.0265 50.8371 50.8851 25.3911 44.6042Z" fill="#4169E1"/>
<path d="M63.4397 39.37L65.5535 34.1358L63.4397 33.6326C62.641 33.0336 61.8926 32.3389 61.0791 31.7601C57.6528 29.3217 47.415 23.5004 38.6782 21.2519C26.8887 18.2177 6.14028 14.8104 1.38006 21.8959C-0.267976 24.349 1.10018 27.6025 3.28726 29.59C13.8706 39.2076 45.5782 50.1901 63.4397 41.4838L58.1049 37.6589C50.8576 41.7858 34.1486 40.477 18.6476 32.7266C13.0108 29.9083 4.35432 21.4532 20.56 20.6479C31.2296 19.5407 50.0524 25.2781 58.1049 32.7266H55.8904L63.4397 39.37Z" fill="#000080"/>
<path d="M34.2893 19.2446L42.7703 27.6747C44.1611 29.0656 45.3485 30.0155 46.3323 30.5243C47.3161 31.0219 48.2998 31.3046 49.2836 31.3724V32H38.3432V31.3724C38.9991 31.3724 39.4683 31.265 39.751 31.0501C40.0451 30.824 40.1921 30.5752 40.1921 30.3038C40.1921 30.0324 40.1355 29.7893 40.0224 29.5744C39.9207 29.3596 39.5701 28.9582 38.9708 28.3702L31.0326 20.5168V27.9291C31.0326 29.0939 31.1061 29.8628 31.2531 30.236C31.3662 30.5187 31.6037 30.7618 31.9655 30.9653C32.4518 31.2367 32.9663 31.3724 33.5091 31.3724H34.2893V32H24.4853V31.3724H25.2995C26.2494 31.3724 26.9392 31.0954 27.3689 30.5413C27.6402 30.1794 27.7759 29.3087 27.7759 27.9291V13.0705C27.7759 11.9058 27.7024 11.1312 27.5554 10.7467C27.4424 10.4753 27.2105 10.2379 26.86 10.0343C26.3625 9.76295 25.8423 9.62725 25.2995 9.62725H24.4853V8.99966H34.2893V9.62725H33.5091C32.9776 9.62725 32.4631 9.75729 31.9655 10.0174C31.615 10.1983 31.3719 10.4697 31.2362 10.8315C31.1005 11.1934 31.0326 11.9397 31.0326 13.0705V20.1097C31.2588 19.8949 32.0334 19.1768 33.3564 17.9555C36.7149 14.8798 38.7446 12.8274 39.4457 11.7984C39.751 11.3461 39.9037 10.9503 39.9037 10.611C39.9037 10.351 39.785 10.1248 39.5475 9.93257C39.31 9.72902 38.9086 9.62725 38.3432 9.62725H37.8174V8.99966H46.2644V9.62725C45.7669 9.63856 45.3145 9.70641 44.9075 9.83079C44.5004 9.95518 44.0028 10.1983 43.4148 10.5602C42.8268 10.9107 42.1031 11.4818 41.2437 12.2733C40.9949 12.4995 39.8472 13.6585 37.8004 15.7505L34.2893 19.2446ZM52.7099 22.3148C52.6986 24.6216 53.2584 26.4308 54.3892 27.7426C55.52 29.0543 56.8486 29.7101 58.3752 29.7101C59.3929 29.7101 60.2749 29.4331 61.0213 28.879C61.7789 28.3136 62.4121 27.3524 62.921 25.9955L63.4468 26.3347C63.2094 27.8839 62.5196 29.2974 61.3775 30.5752C60.2354 31.8417 58.8049 32.4749 57.0861 32.4749C55.2203 32.4749 53.6202 31.7512 52.2859 30.3038C50.9629 28.8451 50.3013 26.8888 50.3013 24.435C50.3013 21.7776 50.9798 19.7083 52.3368 18.2269C53.705 16.7343 55.4182 15.988 57.4762 15.988C59.2177 15.988 60.6481 16.5647 61.7676 17.7181C62.8871 18.8602 63.4468 20.3924 63.4468 22.3148H52.7099ZM52.7099 21.331H59.9018C59.8452 20.3359 59.7265 19.6348 59.5456 19.2277C59.2629 18.5944 58.8388 18.0969 58.2734 17.735C57.7194 17.3732 57.137 17.1923 56.5264 17.1923C55.5878 17.1923 54.7454 17.5598 53.999 18.2948C53.264 19.0185 52.8343 20.0306 52.7099 21.331ZM64.6511 16.4629H71.8938V17.0905H71.5376C71.0288 17.0905 70.6443 17.2036 70.3842 17.4297C70.1355 17.6446 70.0111 17.916 70.0111 18.2439C70.0111 18.6849 70.1977 19.2955 70.5708 20.0758L74.3533 27.9122L77.8305 19.3295C78.0227 18.8658 78.1189 18.4079 78.1189 17.9555C78.1189 17.752 78.0793 17.5993 78.0001 17.4976C77.9097 17.3732 77.7683 17.2771 77.5761 17.2092C77.3838 17.1301 77.0446 17.0905 76.5584 17.0905V16.4629H81.613V17.0905C81.1946 17.1357 80.8723 17.2262 80.6462 17.3619C80.42 17.4976 80.1713 17.752 79.8999 18.1252C79.7981 18.2835 79.6059 18.7188 79.3232 19.4312L72.9964 34.9344C72.3857 36.4384 71.5829 37.5748 70.5878 38.3437C69.604 39.1127 68.6541 39.4972 67.7382 39.4972C67.071 39.4972 66.5226 39.3049 66.0929 38.9205C65.6632 38.536 65.4483 38.095 65.4483 37.5974C65.4483 37.1225 65.601 36.738 65.9063 36.444C66.2229 36.1613 66.6526 36.02 67.1954 36.02C67.5686 36.02 68.0774 36.1444 68.722 36.3931C69.1743 36.5627 69.457 36.6476 69.5701 36.6476C69.9093 36.6476 70.2768 36.4723 70.6726 36.1217C71.0797 35.7712 71.4868 35.0927 71.8938 34.0863L72.9964 31.3894L67.4159 19.6687C67.2463 19.3182 66.9749 18.8828 66.6017 18.3626C66.319 17.9669 66.0872 17.7011 65.9063 17.5654C65.6462 17.3845 65.2278 17.2262 64.6511 17.0905V16.4629Z" fill="white"/>
<path d="M97.7438 8.47384V16.429H97.1162C96.9127 14.9024 96.5451 13.6868 96.0137 12.7822C95.4935 11.8775 94.7472 11.1595 93.7747 10.628C92.8022 10.0965 91.7958 9.83079 90.7555 9.83079C89.5795 9.83079 88.607 10.1926 87.838 10.9164C87.0691 11.6288 86.6846 12.4429 86.6846 13.3589C86.6846 14.06 86.9277 14.6989 87.414 15.2756C88.1151 16.1237 89.783 17.2545 92.4177 18.6679C94.5663 19.8214 96.0306 20.709 96.8109 21.331C97.6024 21.9416 98.2074 22.6653 98.6258 23.5021C99.0555 24.3389 99.2704 25.2152 99.2704 26.1312C99.2704 27.8726 98.5919 29.3766 97.2349 30.643C95.8893 31.8982 94.1535 32.5258 92.0276 32.5258C91.3605 32.5258 90.7329 32.4749 90.1449 32.3732C89.7943 32.3166 89.0649 32.1131 87.9568 31.7625C86.8599 31.4007 86.1645 31.2198 85.8705 31.2198C85.5878 31.2198 85.3616 31.3046 85.192 31.4742C85.0337 31.6438 84.9149 31.9943 84.8358 32.5258H84.2082V24.6385H84.8358C85.1298 26.2895 85.5256 27.5277 86.0231 28.3532C86.5207 29.1674 87.2783 29.8458 88.296 30.3886C89.325 30.9314 90.4502 31.2028 91.6714 31.2028C93.0849 31.2028 94.1987 30.8296 95.0129 30.0833C95.8384 29.337 96.2511 28.455 96.2511 27.4372C96.2511 26.8719 96.0928 26.3008 95.7762 25.7241C95.4709 25.1474 94.9903 24.6103 94.3344 24.1127C93.8934 23.7735 92.6891 23.0554 90.7216 21.9586C88.754 20.8504 87.3518 19.9684 86.515 19.3125C85.6895 18.6566 85.0619 17.9329 84.6322 17.1414C84.2025 16.3498 83.9877 15.4791 83.9877 14.5292C83.9877 12.8783 84.6209 11.4591 85.8874 10.2718C87.1539 9.07316 88.7653 8.47384 90.7216 8.47384C91.9428 8.47384 93.2376 8.7735 94.6058 9.37282C95.2391 9.65552 95.6857 9.79687 95.9458 9.79687C96.2398 9.79687 96.4773 9.71206 96.6582 9.54244C96.8505 9.36151 97.0031 9.00531 97.1162 8.47384H97.7438ZM101.357 16.4629H108.599V17.0905H108.243C107.734 17.0905 107.35 17.2036 107.09 17.4297C106.841 17.6446 106.717 17.916 106.717 18.2439C106.717 18.6849 106.903 19.2955 107.276 20.0758L111.059 27.9122L114.536 19.3295C114.728 18.8658 114.824 18.4079 114.824 17.9555C114.824 17.752 114.785 17.5993 114.706 17.4976C114.615 17.3732 114.474 17.2771 114.282 17.2092C114.089 17.1301 113.75 17.0905 113.264 17.0905V16.4629H118.319V17.0905C117.9 17.1357 117.578 17.2262 117.352 17.3619C117.126 17.4976 116.877 17.752 116.605 18.1252C116.504 18.2835 116.311 18.7188 116.029 19.4312L109.702 34.9344C109.091 36.4384 108.288 37.5748 107.293 38.3437C106.31 39.1127 105.36 39.4972 104.444 39.4972C103.777 39.4972 103.228 39.3049 102.798 38.9205C102.369 38.536 102.154 38.095 102.154 37.5974C102.154 37.1225 102.307 36.738 102.612 36.444C102.928 36.1613 103.358 36.02 103.901 36.02C104.274 36.02 104.783 36.1444 105.428 36.3931C105.88 36.5627 106.163 36.6476 106.276 36.6476C106.615 36.6476 106.982 36.4723 107.378 36.1217C107.785 35.7712 108.192 35.0927 108.599 34.0863L109.702 31.3894L104.121 19.6687C103.952 19.3182 103.68 18.8828 103.307 18.3626C103.025 17.9669 102.793 17.7011 102.612 17.5654C102.352 17.3845 101.933 17.2262 101.357 17.0905V16.4629ZM129.649 16.0049V21.297H129.089C128.66 19.6348 128.106 18.504 127.427 17.9047C126.76 17.3053 125.906 17.0057 124.866 17.0057C124.074 17.0057 123.435 17.2149 122.949 17.6333C122.463 18.0517 122.22 18.5153 122.22 19.0241C122.22 19.6574 122.401 20.2002 122.763 20.6525C123.113 21.1161 123.826 21.608 124.9 22.1282L127.376 23.3325C129.672 24.452 130.819 25.9276 130.819 27.7595C130.819 29.173 130.282 30.3151 129.208 31.1858C128.145 32.0452 126.952 32.4749 125.629 32.4749C124.679 32.4749 123.594 32.3053 122.372 31.9661C121.999 31.853 121.694 31.7965 121.457 31.7965C121.196 31.7965 120.993 31.9435 120.846 32.2375H120.286V26.6909H120.846C121.163 28.274 121.767 29.467 122.661 30.2699C123.554 31.0727 124.555 31.4742 125.663 31.4742C126.443 31.4742 127.077 31.248 127.563 30.7957C128.06 30.3321 128.309 29.778 128.309 29.1334C128.309 28.3532 128.032 27.6973 127.478 27.1659C126.935 26.6344 125.844 25.9616 124.204 25.1474C122.565 24.3332 121.49 23.5982 120.982 22.9423C120.473 22.2978 120.218 21.4836 120.218 20.4998C120.218 19.222 120.654 18.1534 121.524 17.294C122.406 16.4346 123.543 16.0049 124.934 16.0049C125.544 16.0049 126.285 16.135 127.156 16.395C127.732 16.5647 128.117 16.6495 128.309 16.6495C128.49 16.6495 128.631 16.6099 128.733 16.5307C128.835 16.4516 128.954 16.2763 129.089 16.0049H129.649ZM137.655 11.3574V16.4629H141.285V17.6502H137.655V27.7256C137.655 28.732 137.796 29.4105 138.079 29.761C138.373 30.1116 138.746 30.2868 139.199 30.2868C139.572 30.2868 139.934 30.1738 140.284 29.9476C140.635 29.7101 140.906 29.3652 141.098 28.9129H141.76C141.364 30.0211 140.804 30.8579 140.081 31.4233C139.357 31.9774 138.611 32.2544 137.842 32.2544C137.322 32.2544 136.813 32.1131 136.315 31.8304C135.818 31.5364 135.45 31.1236 135.213 30.5922C134.975 30.0494 134.856 29.2182 134.856 28.0988V17.6502H132.397V17.0905C133.019 16.8417 133.652 16.4233 134.297 15.8353C134.953 15.236 135.535 14.5292 136.044 13.7151C136.304 13.2854 136.666 12.4995 137.129 11.3574H137.655ZM145.424 22.3148C145.412 24.6216 145.972 26.4308 147.103 27.7426C148.234 29.0543 149.562 29.7101 151.089 29.7101C152.107 29.7101 152.989 29.4331 153.735 28.879C154.493 28.3136 155.126 27.3524 155.635 25.9955L156.161 26.3347C155.923 27.8839 155.233 29.2974 154.091 30.5752C152.949 31.8417 151.519 32.4749 149.8 32.4749C147.934 32.4749 146.334 31.7512 145 30.3038C143.677 28.8451 143.015 26.8888 143.015 24.435C143.015 21.7776 143.694 19.7083 145.051 18.2269C146.419 16.7343 148.132 15.988 150.19 15.988C151.931 15.988 153.362 16.5647 154.481 17.7181C155.601 18.8602 156.161 20.3924 156.161 22.3148H145.424ZM145.424 21.331H152.616C152.559 20.3359 152.44 19.6348 152.259 19.2277C151.977 18.5944 151.553 18.0969 150.987 17.735C150.433 17.3732 149.851 17.1923 149.24 17.1923C148.302 17.1923 147.459 17.5598 146.713 18.2948C145.978 19.0185 145.548 20.0306 145.424 21.331ZM162.861 19.3125C163.991 18.1817 164.658 17.5315 164.862 17.3619C165.371 16.9322 165.919 16.5986 166.507 16.3611C167.095 16.1237 167.678 16.0049 168.254 16.0049C169.227 16.0049 170.064 16.2876 170.765 16.853C171.466 17.4184 171.935 18.2382 172.173 19.3125C173.337 17.9555 174.321 17.0679 175.124 16.6495C175.927 16.2198 176.752 16.0049 177.6 16.0049C178.426 16.0049 179.155 16.2198 179.788 16.6495C180.433 17.0679 180.942 17.7577 181.315 18.7188C181.564 19.3747 181.688 20.4037 181.688 21.8059V28.4889C181.688 29.4614 181.762 30.1285 181.909 30.4904C182.022 30.7392 182.231 30.954 182.536 31.1349C182.842 31.3046 183.339 31.3894 184.029 31.3894V32H176.362V31.3894H176.684C177.352 31.3894 177.872 31.2593 178.245 30.9992C178.505 30.8183 178.692 30.53 178.805 30.1342C178.85 29.942 178.873 29.3935 178.873 28.4889V21.8059C178.873 20.5394 178.72 19.6461 178.415 19.1259C177.974 18.4022 177.267 18.0404 176.294 18.0404C175.695 18.0404 175.09 18.193 174.479 18.4983C173.88 18.7923 173.151 19.3464 172.291 20.1606L172.257 20.3472L172.291 21.0765V28.4889C172.291 29.5518 172.348 30.2133 172.461 30.4734C172.585 30.7335 172.811 30.954 173.139 31.1349C173.467 31.3046 174.027 31.3894 174.819 31.3894V32H166.965V31.3894C167.825 31.3894 168.413 31.2876 168.729 31.0841C169.057 30.8805 169.283 30.5752 169.408 30.1681C169.464 29.9759 169.493 29.4161 169.493 28.4889V21.8059C169.493 20.5394 169.306 19.6291 168.933 19.075C168.435 18.3513 167.74 17.9895 166.847 17.9895C166.236 17.9895 165.631 18.1534 165.032 18.4814C164.093 18.9789 163.369 19.5387 162.861 20.1606V28.4889C162.861 29.5066 162.928 30.1681 163.064 30.4734C163.211 30.7787 163.42 31.0106 163.692 31.1689C163.974 31.3159 164.54 31.3894 165.388 31.3894V32H157.704V31.3894C158.416 31.3894 158.914 31.3159 159.197 31.1689C159.479 31.0106 159.694 30.7674 159.841 30.4395C159.988 30.1003 160.062 29.4501 160.062 28.4889V22.5522C160.062 20.8447 160.011 19.7422 159.909 19.2446C159.83 18.8715 159.706 18.6171 159.536 18.4814C159.366 18.3344 159.135 18.2609 158.841 18.2609C158.524 18.2609 158.145 18.3457 157.704 18.5153L157.45 17.9047L162.131 16.0049H162.861V19.3125Z" fill="#4169E1"/>
<path d="M92.5625 39.0375L92.651 40.9131H92.4268C92.3836 40.5828 92.3246 40.3469 92.2499 40.2053C92.128 39.9773 91.9648 39.8102 91.7604 39.704C91.5599 39.5939 91.2945 39.5389 90.9642 39.5389H89.8377V45.649C89.8377 46.1405 89.8908 46.4472 89.9969 46.5691C90.1463 46.7342 90.3764 46.8168 90.687 46.8168H90.9642V47.035H87.5729V46.8168H87.856C88.1942 46.8168 88.434 46.7146 88.5755 46.5101C88.662 46.3843 88.7053 46.0973 88.7053 45.649V39.5389H87.744C87.3704 39.5389 87.105 39.5664 86.9477 39.6214C86.7433 39.6961 86.5683 39.8396 86.4228 40.052C86.2774 40.2643 86.1909 40.5513 86.1633 40.9131H85.9392L86.0336 39.0375H92.5625ZM93.3941 43.6673C93.3902 44.4694 93.5848 45.0986 93.978 45.5546C94.3712 46.0107 94.8332 46.2388 95.364 46.2388C95.7178 46.2388 96.0245 46.1425 96.284 45.9498C96.5475 45.7532 96.7676 45.419 96.9446 44.9472L97.1274 45.0651C97.0448 45.6038 96.805 46.0953 96.4079 46.5396C96.0108 46.98 95.5134 47.2001 94.9157 47.2001C94.267 47.2001 93.7106 46.9485 93.2466 46.4452C92.7866 45.938 92.5566 45.2578 92.5566 44.4046C92.5566 43.4806 92.7925 42.761 93.2643 42.246C93.7401 41.727 94.3358 41.4674 95.0514 41.4674C95.6569 41.4674 96.1543 41.668 96.5435 42.069C96.9328 42.4661 97.1274 42.9989 97.1274 43.6673H93.3941ZM93.3941 43.3253H95.8948C95.8751 42.9793 95.8338 42.7355 95.7709 42.5939C95.6726 42.3737 95.5252 42.2007 95.3286 42.0749C95.1359 41.9491 94.9334 41.8862 94.7211 41.8862C94.3947 41.8862 94.1018 42.014 93.8423 42.2696C93.5867 42.5212 93.4373 42.8731 93.3941 43.3253ZM102.441 44.9826C102.296 45.6942 102.011 46.2427 101.586 46.6281C101.162 47.0095 100.692 47.2001 100.177 47.2001C99.5632 47.2001 99.0285 46.9426 98.5724 46.4275C98.1163 45.9125 97.8882 45.2165 97.8882 44.3397C97.8882 43.4904 98.1399 42.8004 98.6432 42.2696C99.1504 41.7387 99.7579 41.4733 100.466 41.4733C100.996 41.4733 101.433 41.6149 101.775 41.898C102.117 42.1772 102.288 42.4681 102.288 42.7709C102.288 42.9203 102.239 43.0422 102.141 43.1365C102.046 43.227 101.913 43.2722 101.74 43.2722C101.508 43.2722 101.333 43.1975 101.215 43.0481C101.148 42.9655 101.103 42.8082 101.079 42.5762C101.059 42.3443 100.981 42.1673 100.843 42.0454C100.705 41.9275 100.515 41.8685 100.271 41.8685C99.8778 41.8685 99.5613 42.014 99.3214 42.3049C99.0029 42.6903 98.8437 43.1994 98.8437 43.8325C98.8437 44.4773 99.001 45.0474 99.3155 45.5429C99.634 46.0343 100.063 46.2801 100.601 46.2801C100.987 46.2801 101.333 46.1484 101.639 45.8849C101.856 45.7041 102.066 45.3757 102.27 44.9L102.441 44.9826ZM104.806 38.6483V42.5998C105.243 42.1201 105.589 41.8135 105.844 41.6798C106.1 41.5422 106.356 41.4733 106.611 41.4733C106.918 41.4733 107.181 41.5579 107.401 41.727C107.622 41.896 107.785 42.1614 107.891 42.5232C107.966 42.7748 108.003 43.2348 108.003 43.9033V45.8142C108.003 46.1562 108.031 46.3902 108.086 46.516C108.125 46.6104 108.192 46.6851 108.286 46.7401C108.38 46.7952 108.553 46.8227 108.805 46.8227V47.035H106.151V46.8227H106.275C106.527 46.8227 106.702 46.7853 106.8 46.7106C106.898 46.632 106.967 46.518 107.006 46.3686C107.018 46.3056 107.024 46.1208 107.024 45.8142V43.9033C107.024 43.3135 106.993 42.9262 106.93 42.7414C106.871 42.5566 106.774 42.419 106.641 42.3285C106.507 42.2342 106.346 42.187 106.157 42.187C105.964 42.187 105.764 42.2381 105.555 42.3403C105.347 42.4426 105.097 42.649 104.806 42.9596V45.8142C104.806 46.1838 104.826 46.4138 104.865 46.5042C104.909 46.5946 104.985 46.6713 105.095 46.7342C105.209 46.7932 105.404 46.8227 105.679 46.8227V47.035H103.002V46.8227C103.242 46.8227 103.43 46.7853 103.568 46.7106C103.646 46.6713 103.709 46.5966 103.757 46.4865C103.804 46.3764 103.827 46.1523 103.827 45.8142V40.9248C103.827 40.3075 103.812 39.9281 103.78 39.7866C103.753 39.645 103.707 39.5487 103.645 39.4976C103.586 39.4465 103.505 39.4209 103.403 39.4209C103.32 39.4209 103.186 39.4524 103.002 39.5153L102.919 39.3088L104.535 38.6483H104.806ZM110.834 42.6175C111.467 41.8547 112.071 41.4733 112.645 41.4733C112.94 41.4733 113.193 41.5481 113.405 41.6975C113.618 41.8429 113.787 42.0848 113.913 42.4229C113.999 42.6588 114.042 43.0205 114.042 43.5081V45.8142C114.042 46.1562 114.07 46.3882 114.125 46.5101C114.168 46.6084 114.237 46.6851 114.331 46.7401C114.43 46.7952 114.609 46.8227 114.868 46.8227V47.035H112.196V46.8227H112.308C112.56 46.8227 112.735 46.7853 112.833 46.7106C112.936 46.632 113.006 46.518 113.046 46.3686C113.061 46.3096 113.069 46.1248 113.069 45.8142V43.6025C113.069 43.111 113.004 42.7551 112.875 42.535C112.749 42.3108 112.535 42.1988 112.232 42.1988C111.764 42.1988 111.298 42.4544 110.834 42.9655V45.8142C110.834 46.1798 110.856 46.4059 110.899 46.4924C110.954 46.6064 111.029 46.691 111.123 46.746C111.221 46.7971 111.418 46.8227 111.713 46.8227V47.035H109.041V46.8227H109.159C109.434 46.8227 109.619 46.7539 109.713 46.6163C109.812 46.4747 109.861 46.2073 109.861 45.8142V43.8089C109.861 43.1601 109.845 42.765 109.814 42.6234C109.786 42.4819 109.741 42.3855 109.678 42.3344C109.619 42.2833 109.538 42.2578 109.436 42.2578C109.326 42.2578 109.194 42.2872 109.041 42.3462L108.953 42.1339L110.58 41.4733H110.834V42.6175ZM117.941 41.4733C118.759 41.4733 119.415 41.784 119.911 42.4052C120.331 42.936 120.542 43.5455 120.542 44.2335C120.542 44.7172 120.426 45.2067 120.194 45.7021C119.962 46.1975 119.641 46.571 119.233 46.8227C118.828 47.0743 118.375 47.2001 117.876 47.2001C117.062 47.2001 116.415 46.8758 115.936 46.227C115.531 45.6805 115.328 45.0671 115.328 44.3869C115.328 43.8915 115.45 43.4 115.694 42.9124C115.942 42.4209 116.266 42.0592 116.667 41.8272C117.068 41.5913 117.493 41.4733 117.941 41.4733ZM117.758 41.8567C117.55 41.8567 117.339 41.9196 117.127 42.0454C116.919 42.1673 116.75 42.3836 116.62 42.6942C116.49 43.0048 116.425 43.4039 116.425 43.8915C116.425 44.6778 116.58 45.3561 116.891 45.9262C117.206 46.4963 117.618 46.7814 118.13 46.7814C118.511 46.7814 118.826 46.6241 119.073 46.3096C119.321 45.995 119.445 45.4544 119.445 44.6877C119.445 43.7283 119.238 42.9734 118.826 42.4229C118.546 42.0454 118.191 41.8567 117.758 41.8567ZM123.196 38.6483V45.8142C123.196 46.1523 123.219 46.3764 123.267 46.4865C123.318 46.5966 123.394 46.6811 123.497 46.7401C123.599 46.7952 123.79 46.8227 124.069 46.8227V47.035H121.421V46.8227C121.668 46.8227 121.837 46.7971 121.928 46.746C122.018 46.6949 122.089 46.6104 122.14 46.4924C122.191 46.3744 122.217 46.1484 122.217 45.8142V40.9072C122.217 40.2977 122.203 39.9242 122.176 39.7866C122.148 39.645 122.103 39.5487 122.04 39.4976C121.981 39.4465 121.904 39.4209 121.81 39.4209C121.708 39.4209 121.578 39.4524 121.421 39.5153L121.32 39.3088L122.93 38.6483H123.196ZM127.342 41.4733C128.16 41.4733 128.817 41.784 129.312 42.4052C129.733 42.936 129.943 43.5455 129.943 44.2335C129.943 44.7172 129.827 45.2067 129.595 45.7021C129.363 46.1975 129.043 46.571 128.634 46.8227C128.229 47.0743 127.777 47.2001 127.277 47.2001C126.463 47.2001 125.816 46.8758 125.337 46.227C124.932 45.6805 124.729 45.0671 124.729 44.3869C124.729 43.8915 124.851 43.4 125.095 42.9124C125.343 42.4209 125.667 42.0592 126.068 41.8272C126.469 41.5913 126.894 41.4733 127.342 41.4733ZM127.159 41.8567C126.951 41.8567 126.74 41.9196 126.528 42.0454C126.32 42.1673 126.151 42.3836 126.021 42.6942C125.891 43.0048 125.826 43.4039 125.826 43.8915C125.826 44.6778 125.982 45.3561 126.292 45.9262C126.607 46.4963 127.02 46.7814 127.531 46.7814C127.912 46.7814 128.227 46.6241 128.474 46.3096C128.722 45.995 128.846 45.4544 128.846 44.6877C128.846 43.7283 128.64 42.9734 128.227 42.4229C127.948 42.0454 127.592 41.8567 127.159 41.8567ZM132.184 45.0651C131.854 44.9039 131.6 44.6798 131.423 44.3928C131.246 44.1018 131.158 43.7814 131.158 43.4314C131.158 42.8967 131.358 42.4367 131.76 42.0513C132.165 41.666 132.682 41.4733 133.311 41.4733C133.826 41.4733 134.272 41.5992 134.649 41.8508H135.794C135.963 41.8508 136.061 41.8567 136.089 41.8685C136.116 41.8764 136.136 41.8921 136.148 41.9157C136.171 41.9511 136.183 42.014 136.183 42.1044C136.183 42.2066 136.173 42.2774 136.153 42.3167C136.142 42.3364 136.12 42.3521 136.089 42.3639C136.061 42.3757 135.963 42.3816 135.794 42.3816H135.092C135.312 42.6647 135.422 43.0264 135.422 43.4668C135.422 43.9701 135.229 44.4006 134.844 44.7584C134.459 45.1162 133.942 45.2951 133.293 45.2951C133.026 45.2951 132.752 45.2558 132.473 45.1772C132.3 45.3266 132.182 45.4583 132.119 45.5723C132.06 45.6824 132.031 45.7768 132.031 45.8554C132.031 45.9223 132.062 45.9872 132.125 46.0501C132.192 46.113 132.32 46.1582 132.509 46.1857C132.619 46.2014 132.894 46.2152 133.334 46.227C134.144 46.2467 134.669 46.2742 134.909 46.3096C135.275 46.3607 135.566 46.4963 135.782 46.7165C136.002 46.9367 136.112 47.208 136.112 47.5304C136.112 47.9747 135.904 48.3915 135.487 48.7808C134.874 49.3548 134.073 49.6419 133.087 49.6419C132.328 49.6419 131.687 49.4708 131.164 49.1287C130.869 48.9321 130.722 48.7277 130.722 48.5154C130.722 48.421 130.743 48.3266 130.786 48.2323C130.853 48.0868 130.991 47.8843 131.199 47.6248C131.227 47.5894 131.427 47.3771 131.801 46.9878C131.596 46.8659 131.451 46.7578 131.364 46.6634C131.282 46.5651 131.241 46.4551 131.241 46.3332C131.241 46.1955 131.296 46.0343 131.406 45.8495C131.52 45.6647 131.779 45.4033 132.184 45.0651ZM133.21 41.7564C132.919 41.7564 132.676 41.8724 132.479 42.1044C132.282 42.3364 132.184 42.6922 132.184 43.1719C132.184 43.7932 132.318 44.2748 132.585 44.6169C132.79 44.8764 133.049 45.0062 133.364 45.0062C133.663 45.0062 133.908 44.8941 134.101 44.67C134.294 44.4459 134.39 44.094 134.39 43.6143C134.39 42.9891 134.254 42.4996 133.983 42.1457C133.782 41.8862 133.525 41.7564 133.21 41.7564ZM132.125 47.035C131.94 47.2355 131.801 47.4223 131.706 47.5953C131.612 47.7683 131.565 47.9275 131.565 48.073C131.565 48.2618 131.679 48.4269 131.907 48.5684C132.3 48.8122 132.868 48.9341 133.611 48.9341C134.319 48.9341 134.84 48.8083 135.174 48.5566C135.513 48.3089 135.682 48.0435 135.682 47.7604C135.682 47.556 135.581 47.4105 135.381 47.324C135.176 47.2375 134.771 47.1864 134.166 47.1707C133.281 47.1471 132.601 47.1018 132.125 47.035ZM136.472 41.6326H138.99V41.8508H138.866C138.689 41.8508 138.556 41.8901 138.465 41.9688C138.379 42.0435 138.336 42.1378 138.336 42.2519C138.336 42.4052 138.4 42.6175 138.53 42.8888L139.845 45.6136L141.055 42.6293C141.121 42.4681 141.155 42.3089 141.155 42.1516C141.155 42.0808 141.141 42.0277 141.113 41.9924C141.082 41.9491 141.033 41.9157 140.966 41.8921C140.899 41.8646 140.781 41.8508 140.612 41.8508V41.6326H142.37V41.8508C142.224 41.8665 142.112 41.898 142.034 41.9452C141.955 41.9924 141.868 42.0808 141.774 42.2106C141.739 42.2656 141.672 42.417 141.574 42.6647L139.374 48.0553C139.161 48.5783 138.882 48.9734 138.536 49.2408C138.194 49.5082 137.864 49.6419 137.545 49.6419C137.313 49.6419 137.123 49.575 136.973 49.4413C136.824 49.3076 136.749 49.1543 136.749 48.9813C136.749 48.8162 136.802 48.6825 136.908 48.5802C137.018 48.4819 137.168 48.4328 137.357 48.4328C137.486 48.4328 137.663 48.476 137.887 48.5625C138.045 48.6215 138.143 48.651 138.182 48.651C138.3 48.651 138.428 48.5901 138.566 48.4682C138.707 48.3463 138.849 48.1104 138.99 47.7604L139.374 46.8227L137.433 42.7473C137.374 42.6254 137.28 42.474 137.15 42.2931C137.052 42.1555 136.971 42.0631 136.908 42.0159C136.818 41.953 136.672 41.898 136.472 41.8508V41.6326ZM152.384 44.8233L152.579 44.8646L151.895 47.035H145.702V46.8168H146.003C146.341 46.8168 146.583 46.7067 146.728 46.4865C146.811 46.3607 146.852 46.0697 146.852 45.6136V40.453C146.852 39.9537 146.797 39.6411 146.687 39.5153C146.534 39.3423 146.306 39.2558 146.003 39.2558H145.702V39.0375H149.323V39.2558C148.899 39.2518 148.6 39.2911 148.427 39.3737C148.258 39.4563 148.142 39.5605 148.079 39.6863C148.016 39.8121 147.984 40.1129 147.984 40.5887V45.6136C147.984 45.94 148.016 46.1641 148.079 46.286C148.126 46.3686 148.199 46.4295 148.297 46.4688C148.395 46.5081 148.702 46.5278 149.217 46.5278H149.801C150.414 46.5278 150.845 46.4826 151.093 46.3921C151.34 46.3017 151.566 46.1425 151.771 45.9144C151.975 45.6824 152.18 45.3187 152.384 44.8233ZM154.596 38.6483C154.761 38.6483 154.901 38.7073 155.015 38.8252C155.133 38.9392 155.192 39.0788 155.192 39.244C155.192 39.4091 155.133 39.5506 155.015 39.6686C154.901 39.7866 154.761 39.8455 154.596 39.8455C154.431 39.8455 154.289 39.7866 154.171 39.6686C154.053 39.5506 153.994 39.4091 153.994 39.244C153.994 39.0788 154.051 38.9392 154.165 38.8252C154.283 38.7073 154.427 38.6483 154.596 38.6483ZM155.085 41.4733V45.8142C155.085 46.1523 155.109 46.3784 155.156 46.4924C155.207 46.6025 155.28 46.6851 155.374 46.7401C155.473 46.7952 155.65 46.8227 155.905 46.8227V47.035H153.281V46.8227C153.544 46.8227 153.721 46.7971 153.812 46.746C153.902 46.6949 153.973 46.6104 154.024 46.4924C154.079 46.3744 154.106 46.1484 154.106 45.8142V43.7322C154.106 43.1464 154.089 42.7669 154.053 42.5939C154.026 42.4681 153.983 42.3816 153.924 42.3344C153.865 42.2833 153.784 42.2578 153.682 42.2578C153.572 42.2578 153.438 42.2872 153.281 42.3462L153.198 42.1339L154.826 41.4733H155.085ZM158.188 42.6234C158.581 42.2302 158.813 42.0042 158.884 41.9452C159.061 41.7958 159.251 41.6798 159.456 41.5972C159.66 41.5146 159.863 41.4733 160.063 41.4733C160.401 41.4733 160.692 41.5716 160.936 41.7682C161.18 41.9648 161.343 42.2499 161.426 42.6234C161.831 42.1516 162.173 41.8429 162.452 41.6975C162.731 41.5481 163.018 41.4733 163.313 41.4733C163.6 41.4733 163.854 41.5481 164.074 41.6975C164.298 41.8429 164.475 42.0828 164.605 42.417C164.691 42.645 164.734 43.0029 164.734 43.4904V45.8142C164.734 46.1523 164.76 46.3843 164.811 46.5101C164.85 46.5966 164.923 46.6713 165.029 46.7342C165.135 46.7932 165.308 46.8227 165.548 46.8227V47.035H162.882V46.8227H162.994C163.226 46.8227 163.407 46.7775 163.537 46.687C163.628 46.6241 163.692 46.5239 163.732 46.3862C163.747 46.3194 163.755 46.1287 163.755 45.8142V43.4904C163.755 43.05 163.702 42.7394 163.596 42.5585C163.443 42.3069 163.197 42.1811 162.859 42.1811C162.65 42.1811 162.44 42.2342 162.228 42.3403C162.019 42.4426 161.766 42.6352 161.467 42.9183L161.455 42.9832L161.467 43.2368V45.8142C161.467 46.1838 161.487 46.4138 161.526 46.5042C161.569 46.5946 161.648 46.6713 161.762 46.7342C161.876 46.7932 162.07 46.8227 162.346 46.8227V47.035H159.615V46.8227C159.914 46.8227 160.118 46.7873 160.228 46.7165C160.342 46.6458 160.421 46.5396 160.464 46.398C160.484 46.3312 160.494 46.1366 160.494 45.8142V43.4904C160.494 43.05 160.429 42.7335 160.299 42.5409C160.126 42.2892 159.884 42.1634 159.574 42.1634C159.361 42.1634 159.151 42.2204 158.943 42.3344C158.616 42.5074 158.365 42.7021 158.188 42.9183V45.8142C158.188 46.168 158.211 46.398 158.259 46.5042C158.31 46.6104 158.382 46.691 158.477 46.746C158.575 46.7971 158.772 46.8227 159.067 46.8227V47.035H156.395V46.8227C156.643 46.8227 156.816 46.7971 156.914 46.746C157.012 46.691 157.087 46.6064 157.138 46.4924C157.189 46.3744 157.215 46.1484 157.215 45.8142V43.7499C157.215 43.1562 157.197 42.7728 157.162 42.5998C157.134 42.4701 157.091 42.3816 157.032 42.3344C156.973 42.2833 156.892 42.2578 156.79 42.2578C156.68 42.2578 156.548 42.2872 156.395 42.3462L156.306 42.1339L157.934 41.4733H158.188V42.6234ZM167.359 38.6483C167.524 38.6483 167.664 38.7073 167.778 38.8252C167.896 38.9392 167.955 39.0788 167.955 39.244C167.955 39.4091 167.896 39.5506 167.778 39.6686C167.664 39.7866 167.524 39.8455 167.359 39.8455C167.194 39.8455 167.052 39.7866 166.934 39.6686C166.816 39.5506 166.757 39.4091 166.757 39.244C166.757 39.0788 166.814 38.9392 166.928 38.8252C167.046 38.7073 167.19 38.6483 167.359 38.6483ZM167.848 41.4733V45.8142C167.848 46.1523 167.872 46.3784 167.919 46.4924C167.97 46.6025 168.043 46.6851 168.137 46.7401C168.236 46.7952 168.413 46.8227 168.668 46.8227V47.035H166.044V46.8227C166.307 46.8227 166.484 46.7971 166.574 46.746C166.665 46.6949 166.736 46.6104 166.787 46.4924C166.842 46.3744 166.869 46.1484 166.869 45.8142V43.7322C166.869 43.1464 166.852 42.7669 166.816 42.5939C166.789 42.4681 166.746 42.3816 166.687 42.3344C166.628 42.2833 166.547 42.2578 166.445 42.2578C166.335 42.2578 166.201 42.2872 166.044 42.3462L165.961 42.1339L167.589 41.4733H167.848ZM170.915 39.8573V41.6326H172.177V42.0454H170.915V45.5488C170.915 45.8987 170.964 46.1346 171.063 46.2565C171.165 46.3784 171.295 46.4393 171.452 46.4393C171.582 46.4393 171.708 46.4 171.829 46.3214C171.951 46.2388 172.046 46.1189 172.113 45.9616H172.343C172.205 46.3469 172.01 46.6379 171.759 46.8345C171.507 47.0271 171.248 47.1235 170.98 47.1235C170.799 47.1235 170.622 47.0743 170.449 46.976C170.276 46.8738 170.149 46.7303 170.066 46.5455C169.983 46.3568 169.942 46.0678 169.942 45.6785V42.0454H169.087V41.8508C169.303 41.7643 169.523 41.6188 169.748 41.4144C169.976 41.206 170.178 40.9602 170.355 40.6771C170.445 40.5277 170.571 40.2545 170.732 39.8573H170.915ZM173.616 43.6673C173.613 44.4694 173.807 45.0986 174.2 45.5546C174.594 46.0107 175.056 46.2388 175.586 46.2388C175.94 46.2388 176.247 46.1425 176.506 45.9498C176.77 45.7532 176.99 45.419 177.167 44.9472L177.35 45.0651C177.267 45.6038 177.027 46.0953 176.63 46.5396C176.233 46.98 175.736 47.2001 175.138 47.2001C174.489 47.2001 173.933 46.9485 173.469 46.4452C173.009 45.938 172.779 45.2578 172.779 44.4046C172.779 43.4806 173.015 42.761 173.487 42.246C173.962 41.727 174.558 41.4674 175.274 41.4674C175.879 41.4674 176.377 41.668 176.766 42.069C177.155 42.4661 177.35 42.9989 177.35 43.6673H173.616ZM173.616 43.3253H176.117C176.098 42.9793 176.056 42.7355 175.993 42.5939C175.895 42.3737 175.748 42.2007 175.551 42.0749C175.358 41.9491 175.156 41.8862 174.943 41.8862C174.617 41.8862 174.324 42.014 174.065 42.2696C173.809 42.5212 173.66 42.8731 173.616 43.3253ZM181.891 46.4275C181.628 46.7028 181.37 46.9013 181.119 47.0232C180.867 47.1412 180.596 47.2001 180.305 47.2001C179.715 47.2001 179.2 46.9544 178.759 46.4629C178.319 45.9675 178.099 45.3325 178.099 44.5579C178.099 43.7833 178.343 43.0756 178.83 42.4347C179.318 41.7899 179.945 41.4674 180.712 41.4674C181.187 41.4674 181.581 41.6188 181.891 41.9216V40.9248C181.891 40.3075 181.875 39.9281 181.844 39.7866C181.816 39.645 181.771 39.5487 181.708 39.4976C181.645 39.4465 181.567 39.4209 181.472 39.4209C181.37 39.4209 181.235 39.4524 181.065 39.5153L180.989 39.3088L182.599 38.6483H182.864V44.8941C182.864 45.5271 182.878 45.9144 182.906 46.056C182.937 46.1936 182.984 46.2899 183.047 46.345C183.114 46.4 183.191 46.4275 183.277 46.4275C183.383 46.4275 183.525 46.3941 183.702 46.3273L183.767 46.5337L182.162 47.2001H181.891V46.4275ZM181.891 46.0147V43.2309C181.868 42.9635 181.797 42.7198 181.679 42.4996C181.561 42.2794 181.404 42.1142 181.207 42.0042C181.014 41.8901 180.826 41.8331 180.641 41.8331C180.295 41.8331 179.986 41.9884 179.715 42.299C179.357 42.708 179.178 43.3056 179.178 44.092C179.178 44.8862 179.351 45.4957 179.697 45.9203C180.043 46.341 180.428 46.5514 180.853 46.5514C181.211 46.5514 181.557 46.3725 181.891 46.0147Z" fill="#4169E1"/>
</svg>
