<svg width="190" height="76" viewBox="0 0 190 76" fill="none" xmlns="http://www.w3.org/2000/svg">
<rect x="0.778076" width="188.444" height="75.0582" rx="4.79095" fill="white"/>
<path d="M82.8944 42.0583C79.5394 42.0583 76.4563 44.1812 74.8066 45.7055C74.2179 46.2243 73.7171 46.8349 73.3237 47.5136C73.414 46.657 73.688 45.8298 74.1269 45.0884V42.3854H67.9484V70.8156H74.1269V48.8095C75.2823 47.347 77.7229 45.6438 80.3055 45.6438C85.6685 45.6438 85.8662 49.3464 85.8662 52.6973V70.8156H91.9213V50.5127C91.9213 45.1007 87.4727 42.0583 82.9067 42.0583" fill="#6D6E71"/>
<path d="M106.824 69.3531C102.19 69.3531 101.485 66.4897 101.485 66.4897V47.8344C103.135 45.8288 104.692 45.366 106.638 45.366C110.111 45.366 114.862 48.0011 114.862 56.6961C114.862 66.3045 110.679 69.3469 107.701 69.3469L106.824 69.3531ZM109.833 42.0892C107.02 42.015 104.288 43.035 102.214 44.934C101.612 45.4662 101.099 46.0912 100.694 46.7854C100.86 45.9085 101.125 45.0534 101.485 44.2367V29.4323H95.1769V68.162C95.906 68.5261 101.973 71.6919 106.83 71.6919C116.573 71.6919 121.448 63.8484 121.448 56.4308C121.448 50.1054 117.426 42.0583 109.82 42.0583" fill="#6D6E71"/>
<path d="M140.417 31.9624C140.206 31.6704 139.952 31.4123 139.663 31.1972C139.3 30.8826 138.918 30.59 138.52 30.3209C136.927 29.345 135.081 28.8579 133.213 28.9201C127.306 28.9201 123.994 33.0609 123.994 37.8003V70.8156H130.043V45.9832H135.14V42.8976H130.198C129.384 42.9153 128.579 43.0633 127.813 43.3358C128.434 42.7042 129.193 42.2247 130.031 41.9349V37.1832C130.031 35.48 130.216 32.1537 134.232 32.1537C135.078 32.1742 135.906 32.3967 136.648 32.8026C137.389 33.2084 138.023 33.7858 138.495 34.4864L140.417 31.9624Z" fill="#6D6E71"/>
<path d="M48.566 30.611C49.4558 35.8749 59.5886 37.7941 67.5775 32.9436C58.5877 40.4415 50.2157 40.244 48.566 37.8805V30.611Z" fill="#00AEEF"/>
<path d="M65.977 13.7208C74.5467 8.30873 86.5888 10.8204 90.2218 19.0711V13.1962C88.9119 7.64225 75.7515 4.82206 65.977 13.7208ZM71.2103 9.1048C79.1992 4.24198 89.3444 6.15502 90.2218 11.4251V4.16793C88.5721 1.79206 80.2063 1.59458 71.2103 9.1048ZM60.9971 18.8243C72.1185 9.70957 86.5393 16.5595 90.2218 37.7202V21.8358C88.4547 14.7328 72.7796 6.2661 60.9971 18.8243Z" fill="#6D6E71"/>
<path d="M48.566 22.965C52.199 31.2157 64.2473 33.7212 72.8046 28.3153C63.0177 37.2078 49.8821 34.363 48.566 28.8213V22.965Z" fill="#00AEEF"/>
<path d="M48.566 4.30981C52.2732 25.4705 66.6569 32.3266 77.7969 23.2057C66.0144 35.77 50.3331 27.2971 48.566 20.2066V4.30981Z" fill="#00AEEF"/>
</svg>
