<svg width="252" height="100" viewBox="0 0 252 100" fill="none" xmlns="http://www.w3.org/2000/svg">
<g clip-path="url(#clip0_1_5365)">
<rect x="0.769989" width="250.854" height="99.9163" rx="6.37763" fill="#FEFEFE"/>
<path d="M135.821 21.3524L148.474 37.2592V26.2322C148.474 24.6939 148.254 23.6536 147.812 23.1114C147.207 22.3801 146.192 22.027 144.767 22.0522V21.3524H153.241V22.0522C152.156 22.1909 151.425 22.3737 151.047 22.6007C150.681 22.8151 150.391 23.1744 150.177 23.6788C149.975 24.1706 149.874 25.0217 149.874 26.2322V47.5863H149.231L131.887 26.2322V42.5363C131.887 44.0116 132.221 45.0077 132.889 45.5247C133.57 46.0417 134.346 46.3002 135.216 46.3002H135.821V47H126.723V46.3002C128.135 46.2876 129.119 45.9975 129.674 45.4301C130.229 44.8627 130.506 43.8981 130.506 42.5363V24.4354L129.957 23.7545C129.415 23.0736 128.936 22.6259 128.52 22.4116C128.104 22.1972 127.505 22.0774 126.723 22.0522V21.3524H135.821ZM169.275 35.3867V42.4984C169.275 43.8855 169.357 44.7618 169.521 45.1275C169.698 45.4806 170.001 45.7643 170.429 45.9786C170.871 46.193 171.671 46.3002 172.831 46.3002V47H159.799V46.3002C160.985 46.3002 161.785 46.193 162.202 45.9786C162.63 45.7517 162.927 45.4616 163.091 45.1086C163.267 44.7555 163.355 43.8855 163.355 42.4984V25.854C163.355 24.4669 163.267 23.5969 163.091 23.2438C162.927 22.8781 162.63 22.5881 162.202 22.3737C161.773 22.1594 160.972 22.0522 159.799 22.0522V21.3524H170.978C174.66 21.3524 177.301 22.0081 178.903 23.3195C180.504 24.6308 181.305 26.2701 181.305 28.2371C181.305 29.9016 180.788 31.3265 179.754 32.5117C178.72 33.697 177.295 34.504 175.479 34.9328C174.256 35.2354 172.188 35.3867 169.275 35.3867ZM169.275 22.8277V33.9114C169.692 33.9366 170.007 33.9492 170.221 33.9492C171.76 33.9492 172.945 33.4953 173.777 32.5874C174.609 31.6669 175.025 30.2483 175.025 28.3317C175.025 26.4277 174.609 25.0343 173.777 24.1517C172.945 23.269 171.703 22.8277 170.051 22.8277H169.275ZM197.794 22.8277V33.3629H198.531C199.666 33.3629 200.593 33.1927 201.312 32.8522C202.03 32.5117 202.636 31.938 203.127 31.131C203.632 30.324 203.96 29.2333 204.111 27.8589H204.773V40.7394H204.111C203.871 38.3058 203.216 36.7044 202.144 35.9352C201.085 35.1534 199.88 34.7625 198.531 34.7625H197.794V42.6119C197.794 43.9233 197.863 44.7429 198.002 45.0708C198.153 45.3986 198.437 45.6886 198.853 45.9408C199.281 46.1804 199.855 46.3002 200.574 46.3002H201.425V47H188.015V46.3002H188.866C189.61 46.3002 190.209 46.1678 190.663 45.903C190.991 45.7264 191.243 45.4238 191.419 44.9951C191.558 44.6925 191.627 43.8981 191.627 42.6119V25.7405C191.627 24.4291 191.558 23.6095 191.419 23.2816C191.281 22.9538 190.997 22.6701 190.568 22.4305C190.152 22.1783 189.585 22.0522 188.866 22.0522H188.015V21.3524H209.653V28.71H208.877C208.701 26.9825 208.247 25.7026 207.515 24.8704C206.797 24.0382 205.75 23.4519 204.376 23.1114C203.619 22.9223 202.219 22.8277 200.177 22.8277H197.794Z" fill="#525657"/>
<path d="M101.418 68.2555L103.677 62.7652H107.067V62.9924H106.797C106.552 62.9924 106.355 63.0354 106.208 63.1214C106.105 63.1787 106.023 63.2749 105.962 63.41C105.917 63.5083 105.895 63.7642 105.895 64.1777V69.668C105.895 70.0938 105.917 70.3599 105.962 70.4664C106.007 70.5728 106.099 70.667 106.238 70.7489C106.378 70.8267 106.564 70.8655 106.797 70.8655H107.067V71.0928H102.719V70.8655H102.99C103.235 70.8655 103.432 70.8226 103.579 70.7366C103.682 70.6793 103.763 70.581 103.825 70.4418C103.87 70.3435 103.892 70.0856 103.892 69.668V63.496L100.699 71.0928H100.552L97.309 63.5513V69.4162C97.309 69.8256 97.3192 70.0774 97.3397 70.1716C97.3929 70.3763 97.5076 70.5442 97.6836 70.6752C97.8637 70.8021 98.1442 70.8655 98.525 70.8655V71.0928H95.6754V70.8655H95.7614C95.9456 70.8696 96.1176 70.841 96.2772 70.7796C96.4369 70.7141 96.5577 70.6281 96.6396 70.5216C96.7215 70.4152 96.7849 70.2657 96.83 70.0733C96.8381 70.0283 96.8422 69.8195 96.8422 69.4469V64.1777C96.8422 63.756 96.8197 63.494 96.7747 63.3916C96.7297 63.2852 96.6375 63.193 96.4983 63.1152C96.3591 63.0334 96.1728 62.9924 95.9395 62.9924H95.6754V62.7652H99.0777L101.418 68.2555ZM110.238 62.5687C110.504 62.5687 110.73 62.6628 110.914 62.8512C111.098 63.0354 111.19 63.2585 111.19 63.5206C111.19 63.7826 111.096 64.0057 110.908 64.19C110.724 64.3742 110.5 64.4663 110.238 64.4663C109.976 64.4663 109.753 64.3742 109.569 64.19C109.385 64.0057 109.293 63.7826 109.293 63.5206C109.293 63.2585 109.385 63.0354 109.569 62.8512C109.753 62.6628 109.976 62.5687 110.238 62.5687ZM111.098 65.3507V69.9014C111.098 70.3067 111.145 70.5667 111.239 70.6813C111.334 70.7919 111.518 70.8553 111.792 70.8717V71.0928H108.691V70.8717C108.945 70.8635 109.133 70.7898 109.256 70.6506C109.338 70.5564 109.379 70.3067 109.379 69.9014V66.5482C109.379 66.1429 109.331 65.885 109.237 65.7744C109.143 65.6598 108.961 65.5943 108.691 65.5779V65.3507H111.098ZM118.175 69.6127L118.365 69.7601C118.095 70.2678 117.757 70.6465 117.352 70.8963C116.951 71.1419 116.523 71.2647 116.068 71.2647C115.303 71.2647 114.691 70.9761 114.232 70.3988C113.774 69.8215 113.544 69.1276 113.544 68.3169C113.544 67.5349 113.753 66.8471 114.171 66.2534C114.674 65.537 115.368 65.1787 116.253 65.1787C116.846 65.1787 117.317 65.3282 117.665 65.627C118.017 65.9259 118.193 66.2596 118.193 66.6281C118.193 66.8614 118.122 67.0477 117.978 67.1869C117.839 67.3261 117.655 67.3957 117.426 67.3957C117.184 67.3957 116.983 67.3159 116.824 67.1562C116.668 66.9965 116.572 66.712 116.535 66.3026C116.511 66.0446 116.451 65.8645 116.357 65.7621C116.263 65.6598 116.152 65.6086 116.025 65.6086C115.829 65.6086 115.661 65.713 115.522 65.9218C115.309 66.2371 115.202 66.7202 115.202 67.3712C115.202 67.9116 115.288 68.4295 115.46 68.9249C115.632 69.4162 115.868 69.7826 116.167 70.0242C116.392 70.2002 116.658 70.2883 116.965 70.2883C117.166 70.2883 117.356 70.2412 117.536 70.147C117.716 70.0528 117.929 69.8748 118.175 69.6127ZM122.592 65.3507V66.6526C122.973 66.059 123.307 65.6659 123.593 65.4735C123.88 65.277 124.156 65.1787 124.423 65.1787C124.652 65.1787 124.834 65.2504 124.969 65.3937C125.108 65.5329 125.178 65.7314 125.178 65.9894C125.178 66.2637 125.11 66.4766 124.975 66.6281C124.844 66.7795 124.685 66.8553 124.496 66.8553C124.279 66.8553 124.091 66.7857 123.931 66.6465C123.772 66.5073 123.677 66.4295 123.649 66.4131C123.608 66.3885 123.561 66.3763 123.507 66.3763C123.389 66.3763 123.276 66.4213 123.17 66.5114C123.002 66.6506 122.875 66.8491 122.789 67.1071C122.658 67.5042 122.592 67.9423 122.592 68.4213V69.7417L122.599 70.0856C122.599 70.319 122.613 70.4684 122.642 70.5339C122.691 70.6445 122.762 70.7263 122.856 70.7796C122.955 70.8287 123.119 70.8594 123.348 70.8717V71.0928H120.246V70.8717C120.496 70.8512 120.664 70.7837 120.75 70.669C120.84 70.5503 120.885 70.2412 120.885 69.7417V66.5666C120.885 66.2391 120.869 66.0303 120.836 65.9402C120.795 65.8256 120.736 65.7417 120.658 65.6884C120.58 65.6352 120.443 65.5984 120.246 65.5779V65.3507H122.592ZM129.405 65.1787C129.905 65.1787 130.369 65.3077 130.799 65.5656C131.229 65.8235 131.555 66.19 131.776 66.6649C132.001 67.1398 132.113 67.6598 132.113 68.2248C132.113 69.0395 131.907 69.7212 131.493 70.2698C130.994 70.9331 130.304 71.2647 129.423 71.2647C128.56 71.2647 127.894 70.9618 127.428 70.3558C126.961 69.7499 126.727 69.0477 126.727 68.2494C126.727 67.4264 126.965 66.7099 127.44 66.0999C127.919 65.4858 128.574 65.1787 129.405 65.1787ZM129.43 65.6147C129.221 65.6147 129.041 65.6946 128.889 65.8543C128.742 66.0098 128.644 66.321 128.594 66.7877C128.549 67.2504 128.527 67.8952 128.527 68.7222C128.527 69.1603 128.556 69.5697 128.613 69.9505C128.658 70.2412 128.754 70.4623 128.901 70.6138C129.049 70.7652 129.217 70.841 129.405 70.841C129.589 70.841 129.743 70.7898 129.866 70.6874C130.025 70.5482 130.132 70.3538 130.185 70.104C130.267 69.7151 130.308 68.929 130.308 67.7458C130.308 67.0498 130.269 66.5728 130.191 66.3149C130.113 66.0528 129.999 65.8624 129.847 65.7437C129.741 65.6577 129.602 65.6147 129.43 65.6147ZM136.635 65.9525V69.9382C136.635 70.3231 136.676 70.5646 136.758 70.6629C136.889 70.8144 137.131 70.884 137.483 70.8717V71.0928H134.099V70.8717C134.357 70.8676 134.539 70.8389 134.646 70.7857C134.756 70.7284 134.832 70.6506 134.873 70.5523C134.914 70.4541 134.934 70.2494 134.934 69.9382V65.9525H134.099V65.3507H134.934V64.9269L134.928 64.6383C134.928 64.0487 135.143 63.5574 135.573 63.1644C136.007 62.7713 136.592 62.5748 137.329 62.5748C137.833 62.5748 138.205 62.669 138.447 62.8573C138.693 63.0456 138.815 63.2544 138.815 63.4837C138.815 63.668 138.74 63.8276 138.588 63.9627C138.437 64.0978 138.236 64.1654 137.986 64.1654C137.774 64.1654 137.604 64.1101 137.477 63.9996C137.354 63.889 137.292 63.7662 137.292 63.6311C137.292 63.5943 137.305 63.5185 137.329 63.4039C137.346 63.3343 137.354 63.2688 137.354 63.2074C137.354 63.1214 137.329 63.0579 137.28 63.017C137.215 62.9556 137.135 62.9249 137.041 62.9249C136.922 62.9249 136.822 62.974 136.74 63.0723C136.662 63.1705 136.623 63.3281 136.623 63.5451L136.635 64.6199V65.3507H137.483V65.9525H136.635ZM140.82 62.5687C141.086 62.5687 141.311 62.6628 141.495 62.8512C141.679 63.0354 141.771 63.2585 141.771 63.5206C141.771 63.7826 141.677 64.0057 141.489 64.19C141.305 64.3742 141.082 64.4663 140.82 64.4663C140.557 64.4663 140.334 64.3742 140.15 64.19C139.966 64.0057 139.874 63.7826 139.874 63.5206C139.874 63.2585 139.966 63.0354 140.15 62.8512C140.334 62.6628 140.557 62.5687 140.82 62.5687ZM141.679 65.3507V69.9014C141.679 70.3067 141.726 70.5667 141.821 70.6813C141.915 70.7919 142.099 70.8553 142.373 70.8717V71.0928H139.272V70.8717C139.526 70.8635 139.714 70.7898 139.837 70.6506C139.919 70.5564 139.96 70.3067 139.96 69.9014V66.5482C139.96 66.1429 139.913 65.885 139.818 65.7744C139.724 65.6598 139.542 65.5943 139.272 65.5779V65.3507H141.679ZM146.416 65.3507V66.0938C146.711 65.7744 146.993 65.5431 147.264 65.3998C147.534 65.2524 147.825 65.1787 148.136 65.1787C148.508 65.1787 148.817 65.2831 149.063 65.4919C149.309 65.6966 149.472 65.9525 149.554 66.2596C149.62 66.4929 149.653 66.9413 149.653 67.6045V69.84C149.653 70.2821 149.692 70.5585 149.769 70.669C149.851 70.7755 150.019 70.843 150.273 70.8717V71.0928H147.368V70.8717C147.585 70.843 147.741 70.753 147.835 70.6015C147.9 70.4991 147.933 70.2453 147.933 69.84V67.2852C147.933 66.8143 147.915 66.5175 147.878 66.3947C147.841 66.2719 147.778 66.1777 147.687 66.1122C147.601 66.0426 147.505 66.0078 147.399 66.0078C147.047 66.0078 146.719 66.2596 146.416 66.7632V69.84C146.416 70.2698 146.455 70.5421 146.533 70.6567C146.615 70.7714 146.764 70.843 146.981 70.8717V71.0928H144.076V70.8717C144.318 70.8471 144.49 70.7693 144.592 70.6383C144.662 70.5482 144.697 70.2821 144.697 69.84V66.5974C144.697 66.1634 144.656 65.8932 144.574 65.7867C144.496 65.6803 144.33 65.6107 144.076 65.5779V65.3507H146.416ZM155.372 70.2453C154.672 70.8635 154.044 71.1726 153.487 71.1726C153.159 71.1726 152.887 71.0662 152.67 70.8533C152.453 70.6363 152.344 70.3661 152.344 70.0426C152.344 69.6045 152.533 69.2115 152.909 68.8635C153.286 68.5114 154.107 68.0446 155.372 67.4633V66.886C155.372 66.452 155.348 66.1797 155.298 66.0692C155.253 65.9546 155.165 65.8563 155.034 65.7744C154.903 65.6884 154.756 65.6455 154.592 65.6455C154.326 65.6455 154.107 65.7048 153.935 65.8235C153.829 65.8972 153.775 65.9832 153.775 66.0815C153.775 66.1675 153.833 66.2739 153.947 66.4008C154.103 66.5769 154.181 66.7468 154.181 66.9106C154.181 67.1112 154.105 67.2831 153.954 67.4264C153.806 67.5656 153.612 67.6352 153.37 67.6352C153.112 67.6352 152.895 67.5574 152.719 67.4019C152.547 67.2463 152.461 67.0641 152.461 66.8553C152.461 66.5605 152.578 66.2801 152.811 66.0139C153.045 65.7437 153.37 65.537 153.788 65.3937C154.205 65.2504 154.639 65.1787 155.09 65.1787C155.634 65.1787 156.064 65.2954 156.379 65.5288C156.699 65.758 156.905 66.0078 157 66.278C157.057 66.45 157.086 66.8451 157.086 67.4633V69.6926C157.086 69.9546 157.096 70.1204 157.116 70.19C157.137 70.2555 157.167 70.3046 157.208 70.3374C157.249 70.3701 157.296 70.3865 157.35 70.3865C157.456 70.3865 157.565 70.3108 157.675 70.1593L157.859 70.3067C157.655 70.6097 157.442 70.8307 157.221 70.9699C157.004 71.1051 156.756 71.1726 156.478 71.1726C156.15 71.1726 155.894 71.0969 155.71 70.9454C155.526 70.7898 155.413 70.5564 155.372 70.2453ZM155.372 69.797V67.8747C154.877 68.1654 154.508 68.4766 154.267 68.8082C154.107 69.0293 154.027 69.2524 154.027 69.4776C154.027 69.6659 154.095 69.8318 154.23 69.9751C154.332 70.0856 154.476 70.1409 154.66 70.1409C154.864 70.1409 155.102 70.0262 155.372 69.797ZM161.97 65.3507V66.0938C162.265 65.7744 162.547 65.5431 162.817 65.3998C163.088 65.2524 163.378 65.1787 163.689 65.1787C164.062 65.1787 164.371 65.2831 164.617 65.4919C164.862 65.6966 165.026 65.9525 165.108 66.2596C165.174 66.4929 165.206 66.9413 165.206 67.6045V69.84C165.206 70.2821 165.245 70.5585 165.323 70.669C165.405 70.7755 165.573 70.843 165.827 70.8717V71.0928H162.922V70.8717C163.139 70.843 163.294 70.753 163.388 70.6015C163.454 70.4991 163.487 70.2453 163.487 69.84V67.2852C163.487 66.8143 163.468 66.5175 163.431 66.3947C163.395 66.2719 163.331 66.1777 163.241 66.1122C163.155 66.0426 163.059 66.0078 162.952 66.0078C162.6 66.0078 162.273 66.2596 161.97 66.7632V69.84C161.97 70.2698 162.009 70.5421 162.087 70.6567C162.168 70.7714 162.318 70.843 162.535 70.8717V71.0928H159.63V70.8717C159.872 70.8471 160.044 70.7693 160.146 70.6383C160.215 70.5482 160.25 70.2821 160.25 69.84V66.5974C160.25 66.1634 160.209 65.8932 160.127 65.7867C160.05 65.6803 159.884 65.6107 159.63 65.5779V65.3507H161.97ZM172.443 69.6127L172.633 69.7601C172.363 70.2678 172.025 70.6465 171.62 70.8963C171.219 71.1419 170.791 71.2647 170.336 71.2647C169.571 71.2647 168.959 70.9761 168.5 70.3988C168.041 69.8215 167.812 69.1276 167.812 68.3169C167.812 67.5349 168.021 66.8471 168.439 66.2534C168.942 65.537 169.636 65.1787 170.52 65.1787C171.114 65.1787 171.585 65.3282 171.933 65.627C172.285 65.9259 172.461 66.2596 172.461 66.6281C172.461 66.8614 172.389 67.0477 172.246 67.1869C172.107 67.3261 171.923 67.3957 171.693 67.3957C171.452 67.3957 171.251 67.3159 171.092 67.1562C170.936 66.9965 170.84 66.712 170.803 66.3026C170.778 66.0446 170.719 65.8645 170.625 65.7621C170.531 65.6598 170.42 65.6086 170.293 65.6086C170.097 65.6086 169.929 65.713 169.79 65.9218C169.577 66.2371 169.47 66.7202 169.47 67.3712C169.47 67.9116 169.556 68.4295 169.728 68.9249C169.9 69.4162 170.136 69.7826 170.435 70.0242C170.66 70.2002 170.926 70.2883 171.233 70.2883C171.433 70.2883 171.624 70.2412 171.804 70.147C171.984 70.0528 172.197 69.8748 172.443 69.6127ZM179.341 68.016H176.191C176.228 68.7775 176.43 69.3794 176.799 69.8215C177.081 70.1613 177.421 70.3313 177.818 70.3313C178.064 70.3313 178.287 70.2637 178.488 70.1286C178.688 69.9894 178.903 69.7417 179.133 69.3855L179.341 69.5206C179.03 70.1552 178.686 70.6056 178.31 70.8717C177.933 71.1337 177.497 71.2647 177.002 71.2647C176.15 71.2647 175.505 70.9372 175.067 70.2821C174.715 69.754 174.539 69.0989 174.539 68.3169C174.539 67.3589 174.797 66.5974 175.313 66.0324C175.833 65.4633 176.441 65.1787 177.137 65.1787C177.718 65.1787 178.222 65.4182 178.647 65.8972C179.077 66.3722 179.309 67.0784 179.341 68.016ZM177.831 67.6045C177.831 66.9454 177.794 66.4929 177.72 66.2473C177.65 66.0016 177.54 65.8154 177.388 65.6884C177.302 65.6147 177.188 65.5779 177.044 65.5779C176.832 65.5779 176.658 65.6823 176.522 65.8911C176.281 66.2555 176.16 66.755 176.16 67.3896V67.6045H177.831ZM190.645 66.6772C191.435 66.8614 191.99 67.0846 192.31 67.3466C192.768 67.7192 192.997 68.2023 192.997 68.7959C192.997 69.4223 192.746 69.9403 192.242 70.3497C191.624 70.8451 190.725 71.0928 189.546 71.0928H185.315V70.8655C185.699 70.8655 185.959 70.8307 186.095 70.7611C186.234 70.6874 186.33 70.5933 186.383 70.4786C186.44 70.364 186.469 70.0815 186.469 69.6311V64.2268C186.469 63.7765 186.44 63.494 186.383 63.3793C186.33 63.2606 186.234 63.1664 186.095 63.0968C185.955 63.0272 185.695 62.9924 185.315 62.9924V62.7652H189.306C190.26 62.7652 190.936 62.8512 191.333 63.0231C191.73 63.191 192.043 63.4448 192.273 63.7846C192.502 64.1204 192.617 64.4786 192.617 64.8594C192.617 65.2606 192.471 65.6188 192.181 65.9341C191.89 66.2453 191.378 66.4929 190.645 66.6772ZM188.41 66.5114C188.991 66.5114 189.419 66.4459 189.693 66.3149C189.972 66.1838 190.185 65.9996 190.332 65.7621C190.479 65.5247 190.553 65.2217 190.553 64.8532C190.553 64.4847 190.479 64.1838 190.332 63.9505C190.189 63.713 189.982 63.5328 189.712 63.41C189.442 63.2872 189.008 63.2278 188.41 63.2319V66.5114ZM188.41 66.9904V69.6619L188.404 69.9689C188.404 70.19 188.459 70.3579 188.569 70.4725C188.684 70.583 188.852 70.6383 189.073 70.6383C189.401 70.6383 189.702 70.5667 189.976 70.4234C190.254 70.276 190.467 70.0651 190.615 69.7908C190.762 69.5124 190.836 69.2033 190.836 68.8635C190.836 68.4745 190.746 68.1265 190.565 67.8195C190.385 67.5083 190.138 67.2913 189.822 67.1685C189.507 67.0457 189.036 66.9863 188.41 66.9904ZM198.164 70.2453C197.464 70.8635 196.836 71.1726 196.279 71.1726C195.951 71.1726 195.679 71.0662 195.462 70.8533C195.245 70.6363 195.136 70.3661 195.136 70.0426C195.136 69.6045 195.325 69.2115 195.701 68.8635C196.078 68.5114 196.899 68.0446 198.164 67.4633V66.886C198.164 66.452 198.14 66.1797 198.09 66.0692C198.045 65.9546 197.957 65.8563 197.826 65.7744C197.695 65.6884 197.548 65.6455 197.384 65.6455C197.118 65.6455 196.899 65.7048 196.727 65.8235C196.621 65.8972 196.567 65.9832 196.567 66.0815C196.567 66.1675 196.625 66.2739 196.739 66.4008C196.895 66.5769 196.973 66.7468 196.973 66.9106C196.973 67.1112 196.897 67.2831 196.745 67.4264C196.598 67.5656 196.404 67.6352 196.162 67.6352C195.904 67.6352 195.687 67.5574 195.511 67.4019C195.339 67.2463 195.253 67.0641 195.253 66.8553C195.253 66.5605 195.37 66.2801 195.603 66.0139C195.837 65.7437 196.162 65.537 196.58 65.3937C196.997 65.2504 197.431 65.1787 197.882 65.1787C198.426 65.1787 198.856 65.2954 199.171 65.5288C199.491 65.758 199.697 66.0078 199.792 66.278C199.849 66.45 199.878 66.8451 199.878 67.4633V69.6926C199.878 69.9546 199.888 70.1204 199.908 70.19C199.929 70.2555 199.959 70.3046 200 70.3374C200.041 70.3701 200.088 70.3865 200.142 70.3865C200.248 70.3865 200.357 70.3108 200.467 70.1593L200.651 70.3067C200.447 70.6097 200.234 70.8307 200.013 70.9699C199.796 71.1051 199.548 71.1726 199.27 71.1726C198.942 71.1726 198.686 71.0969 198.502 70.9454C198.318 70.7898 198.205 70.5564 198.164 70.2453ZM198.164 69.797V67.8747C197.669 68.1654 197.3 68.4766 197.059 68.8082C196.899 69.0293 196.819 69.2524 196.819 69.4776C196.819 69.6659 196.887 69.8318 197.022 69.9751C197.124 70.0856 197.268 70.1409 197.452 70.1409C197.656 70.1409 197.894 70.0262 198.164 69.797ZM204.762 65.3507V66.0938C205.057 65.7744 205.339 65.5431 205.609 65.3998C205.88 65.2524 206.17 65.1787 206.481 65.1787C206.854 65.1787 207.163 65.2831 207.409 65.4919C207.654 65.6966 207.818 65.9525 207.9 66.2596C207.966 66.4929 207.998 66.9413 207.998 67.6045V69.84C207.998 70.2821 208.037 70.5585 208.115 70.669C208.197 70.7755 208.365 70.843 208.619 70.8717V71.0928H205.714V70.8717C205.931 70.843 206.086 70.753 206.18 70.6015C206.246 70.4991 206.279 70.2453 206.279 69.84V67.2852C206.279 66.8143 206.26 66.5175 206.223 66.3947C206.187 66.2719 206.123 66.1777 206.033 66.1122C205.947 66.0426 205.851 66.0078 205.744 66.0078C205.392 66.0078 205.065 66.2596 204.762 66.7632V69.84C204.762 70.2698 204.801 70.5421 204.879 70.6567C204.96 70.7714 205.11 70.843 205.327 70.8717V71.0928H202.422V70.8717C202.664 70.8471 202.836 70.7693 202.938 70.6383C203.007 70.5482 203.042 70.2821 203.042 69.84V66.5974C203.042 66.1634 203.001 65.8932 202.919 65.7867C202.842 65.6803 202.676 65.6107 202.422 65.5779V65.3507H204.762ZM212.883 62.7652V68.2432L214.215 66.9351C214.49 66.669 214.659 66.4766 214.725 66.3578C214.795 66.2391 214.829 66.1245 214.829 66.0139C214.829 65.9034 214.784 65.8113 214.694 65.7376C214.604 65.6639 214.428 65.6107 214.166 65.5779V65.3507H216.739V65.5779C216.494 65.5902 216.279 65.6495 216.094 65.756C215.91 65.8584 215.55 66.1716 215.014 66.6956L214.387 67.3097L215.738 69.2872C216.283 70.0897 216.606 70.5401 216.709 70.6383C216.848 70.7775 217.024 70.8553 217.237 70.8717V71.0928H214.271V70.8717C214.402 70.8717 214.496 70.8471 214.553 70.798C214.614 70.7489 214.645 70.6956 214.645 70.6383C214.645 70.5442 214.559 70.3701 214.387 70.1163L213.251 68.452L212.883 68.8144V69.8461C212.883 70.2842 212.924 70.5585 213.005 70.669C213.087 70.7755 213.255 70.843 213.509 70.8717V71.0928H210.543V70.8717C210.784 70.8471 210.956 70.7693 211.059 70.6383C211.128 70.5482 211.163 70.2842 211.163 69.8461V64.0119C211.163 63.5779 211.122 63.3077 211.04 63.2012C210.962 63.0948 210.797 63.0252 210.543 62.9924V62.7652H212.883ZM225.931 67.322V69.6311C225.931 70.0815 225.957 70.3661 226.01 70.4848C226.068 70.5994 226.166 70.6915 226.305 70.7611C226.449 70.8307 226.709 70.8655 227.085 70.8655V71.0928H222.854V70.8655C223.239 70.8655 223.499 70.8307 223.634 70.7611C223.773 70.6874 223.869 70.5933 223.922 70.4786C223.98 70.364 224.008 70.0815 224.008 69.6311V64.2268C224.008 63.7765 223.98 63.494 223.922 63.3793C223.869 63.2606 223.773 63.1664 223.634 63.0968C223.495 63.0272 223.235 62.9924 222.854 62.9924V62.7652H226.483C227.679 62.7652 228.537 62.9781 229.057 63.4039C229.576 63.8297 229.836 64.3619 229.836 65.0006C229.836 65.5411 229.669 66.0037 229.333 66.3885C228.997 66.7734 228.535 67.0354 227.945 67.1746C227.548 67.2729 226.876 67.322 225.931 67.322ZM225.931 63.2442V66.843C226.066 66.8512 226.168 66.8553 226.238 66.8553C226.737 66.8553 227.122 66.7079 227.392 66.4131C227.662 66.1142 227.798 65.6536 227.798 65.0313C227.798 64.4131 227.662 63.9607 227.392 63.6741C227.122 63.3875 226.719 63.2442 226.182 63.2442H225.931ZM234.027 62.7652V69.9014C234.027 70.3067 234.074 70.5667 234.168 70.6813C234.262 70.7919 234.446 70.8553 234.721 70.8717V71.0928H231.619V70.8717C231.873 70.8635 232.062 70.7898 232.184 70.6506C232.266 70.5564 232.307 70.3067 232.307 69.9014V63.9566C232.307 63.5554 232.26 63.2995 232.166 63.1889C232.072 63.0743 231.89 63.0088 231.619 62.9924V62.7652H234.027ZM241.097 69.6127L241.288 69.7601C241.018 70.2678 240.68 70.6465 240.274 70.8963C239.873 71.1419 239.445 71.2647 238.991 71.2647C238.225 71.2647 237.613 70.9761 237.155 70.3988C236.696 69.8215 236.467 69.1276 236.467 68.3169C236.467 67.5349 236.676 66.8471 237.093 66.2534C237.597 65.537 238.291 65.1787 239.175 65.1787C239.769 65.1787 240.24 65.3282 240.588 65.627C240.94 65.9259 241.116 66.2596 241.116 66.6281C241.116 66.8614 241.044 67.0477 240.901 67.1869C240.762 67.3261 240.577 67.3957 240.348 67.3957C240.107 67.3957 239.906 67.3159 239.746 67.1562C239.591 66.9965 239.494 66.712 239.458 66.3026C239.433 66.0446 239.374 65.8645 239.28 65.7621C239.185 65.6598 239.075 65.6086 238.948 65.6086C238.751 65.6086 238.584 65.713 238.444 65.9218C238.231 66.2371 238.125 66.7202 238.125 67.3712C238.125 67.9116 238.211 68.4295 238.383 68.9249C238.555 69.4162 238.79 69.7826 239.089 70.0242C239.314 70.2002 239.58 70.2883 239.888 70.2883C240.088 70.2883 240.279 70.2412 240.459 70.147C240.639 70.0528 240.852 69.8748 241.097 69.6127Z" fill="#525657"/>
<g filter="url(#filter0_f_1_5365)">
<path d="M86.5 54.5H260.5" stroke="#525657"/>
</g>
<rect x="56" y="-4" width="31" height="109" fill="#2E694D"/>
<rect x="26" y="-4" width="30" height="109" fill="#FAE301"/>
<rect x="-5.00003" y="-4" width="31" height="109" fill="#313977"/>
</g>
<defs>
<filter id="filter0_f_1_5365" x="85.5" y="53" width="176" height="3" filterUnits="userSpaceOnUse" color-interpolation-filters="sRGB">
<feFlood flood-opacity="0" result="BackgroundImageFix"/>
<feBlend mode="normal" in="SourceGraphic" in2="BackgroundImageFix" result="shape"/>
<feGaussianBlur stdDeviation="0.5" result="effect1_foregroundBlur_1_5365"/>
</filter>
<clipPath id="clip0_1_5365">
<rect x="0.769989" width="250.854" height="99.9163" rx="6.37763" fill="white"/>
</clipPath>
</defs>
</svg>
