<svg width="231" height="92" viewBox="0 0 231 92" fill="none" xmlns="http://www.w3.org/2000/svg">
<rect x="0.891357" width="230.109" height="91.5486" rx="5.77333" fill="#060410"/>
<path d="M37.4171 25.3792H30.3081V38.7965H25.3491V25.3792H18.2114V21.3368H37.4171V25.3792ZM39.7963 38.8252V21.3368H56.5654V25.1212H44.7267V28.1028H55.8488V31.6291H44.7267V35.0408H57.1387V38.8252H39.7963ZM59.26 30.4537C59.26 28.2748 59.6899 26.4973 60.5212 25.1212C61.3525 23.745 62.6425 22.7416 64.305 22.0822C65.9676 21.4228 68.0315 21.1074 70.4967 21.1074C72.9619 21.1074 72.0446 21.1074 72.7039 21.1648C73.3632 21.1934 73.9652 21.2508 74.5385 21.3368C75.1118 21.4228 75.6565 21.5088 76.2011 21.6235C76.7457 21.7382 77.2904 21.8815 77.8923 22.0248L76.8891 25.6085C76.1724 25.4652 75.4558 25.3505 74.7678 25.2358C74.0799 25.1498 73.4206 25.0638 72.7899 25.0351C72.1306 24.9778 71.5 24.9491 70.8407 24.9491C69.7228 24.9491 68.7481 25.0638 67.9169 25.2645C67.1142 25.4652 66.4263 25.7806 65.9103 26.2106C65.3943 26.6406 65.0217 27.214 64.7637 27.9021C64.5057 28.5902 64.391 29.4216 64.391 30.3963C64.391 31.3711 64.5057 32.0018 64.7637 32.6326C65.0217 33.2633 65.3943 33.7793 65.9103 34.1807C66.4263 34.5821 67.0856 34.8688 67.8595 35.0695C68.6335 35.2702 69.5794 35.3562 70.6687 35.3562C71.758 35.3562 72.9333 35.2988 74.1372 35.1555C75.3125 35.0121 76.4591 34.8114 77.5197 34.5534L78.4083 38.0224C77.835 38.1944 77.2617 38.3378 76.6884 38.4811C76.1151 38.6245 75.4845 38.7392 74.7965 38.8252C74.1085 38.9112 73.3919 38.9972 72.5893 39.0545C71.7867 39.1119 70.898 39.1405 69.9234 39.1405C68.2035 39.1405 66.6556 38.9685 65.337 38.6532C64.0184 38.3378 62.9004 37.8217 62.0118 37.1337C61.1232 36.4456 60.4352 35.5568 59.9766 34.4674C59.518 33.378 59.2886 32.0592 59.2886 30.511L59.26 30.4537ZM81.1028 38.8252V21.3368H86.0906V28.7908H95.6934V21.3368H100.681V38.8252H95.6934V32.8906H86.0906V38.8252H81.1028Z" fill="#A6A6A6"/>
<path fill-rule="evenodd" clip-rule="evenodd" d="M60.2059 53.9626H73.5352C76.5737 53.9626 79.0389 56.3422 79.0389 59.2665V71.4224H59.088C57.2534 71.4224 55.7341 69.9602 55.7341 68.1827V63.9683C55.7341 62.3055 57.1387 60.958 58.8587 60.958H69.9234L68.7481 63.4236H60.6072C60.2346 63.4236 59.8619 63.6816 59.8619 64.083V67.4086C59.8619 67.7813 60.2632 68.068 60.6072 68.068H74.7105V60.0979C74.7105 58.5498 73.3346 57.3743 71.8153 57.3743H58.572L60.1772 53.9913L60.2059 53.9626ZM169.793 47.598V71.3937H150.358C148.523 71.3937 147.004 69.9315 147.004 68.154V59.2378C147.004 56.3135 149.469 53.934 152.508 53.934H163.601L161.967 57.317H154.228C152.708 57.317 151.333 58.4924 151.333 60.0406V67.3513C151.333 67.724 151.734 68.0107 152.078 68.0107H165.493V47.598H169.793ZM101.484 71.3937H105.784V59.2378C105.784 56.3135 103.318 53.934 100.28 53.934H91.1357L89.5017 57.317H98.5599C100.079 57.317 101.455 58.4924 101.455 60.0406V71.3937H101.484ZM83.568 47.598V71.3937H87.8678V47.598H83.568ZM47.6506 71.3937H51.9503V59.2378C51.9503 56.3135 49.4851 53.934 46.4466 53.934H18.2114V71.3937H22.5112V57.9764C22.5112 57.6037 22.9125 57.317 23.2565 57.317H32.1427C32.5154 57.317 32.888 57.575 32.888 57.9764V71.3937H37.1878V57.9764C37.1878 57.6037 37.5891 57.317 37.9331 57.317H44.6694C46.1886 57.317 47.5646 58.4924 47.5646 60.0406V71.3937H47.6506ZM192.266 53.9626H181.46C178.421 53.9626 175.956 56.3422 175.956 59.2665V71.4224H180.256V60.0692C180.256 58.5211 181.632 57.3456 183.151 57.3456H190.604L192.238 53.9626H192.266ZM137.143 53.9626C140.182 53.9626 142.647 56.3422 142.647 59.2665V71.4224H138.347V60.0692C138.347 58.5211 136.971 57.3456 135.452 57.3456H125.104V71.4224H120.804V53.9913C126.251 53.9913 131.697 53.9913 137.172 53.9913L137.143 53.9626ZM111.115 55.0521L115.415 52.5865V71.3937H111.115V55.0521ZM115.444 50.1496V47.5693H111.144V52.6152L115.444 50.1496ZM195.276 53.9626H208.606C211.644 53.9626 214.109 56.3422 214.109 59.2665V71.4224H194.158C192.324 71.4224 190.805 69.9602 190.805 68.1827V63.9683C190.805 62.3055 192.209 60.958 193.929 60.958H204.994L203.818 63.4236H195.678C195.305 63.4236 194.932 63.6816 194.932 64.083V67.4086C194.932 67.7813 195.334 68.068 195.678 68.068H209.781V60.0979C209.781 58.5498 208.405 57.3743 206.886 57.3743H193.642L195.248 53.9913L195.276 53.9626Z" fill="#A6A6A6"/>
</svg>
