<svg width="231" height="92" viewBox="0 0 231 92" fill="none" xmlns="http://www.w3.org/2000/svg">
<rect x="0.445679" width="230.109" height="91.5486" rx="5.77333" fill="#060410"/>
<path d="M181.539 34.8855C172.945 34.8855 167.81 40.0918 167.81 48.8945C167.81 57.6961 172.945 62.9027 181.539 62.9027C190.132 62.9027 195.215 57.6961 195.215 48.8945C195.215 40.0918 190.132 34.8855 181.539 34.8855ZM181.539 57.2672C177.346 57.2672 174.884 54.1545 174.884 48.8945C174.884 43.6337 177.346 40.4676 181.539 40.4676C185.731 40.4676 188.193 43.6337 188.193 48.8945C188.193 54.1545 185.731 57.2672 181.539 57.2672ZM222.307 54.0465C222.307 59.5748 217.853 62.9024 210.36 62.9024C202.815 62.9024 198.413 59.4678 198.413 53.6173H204.858C204.858 56.6229 206.902 58.3941 210.36 58.3941C213.713 58.3941 215.652 57.1059 215.652 54.852C215.652 52.0069 212.561 51.4704 209.102 50.8802C204.543 50.1287 199.094 49.2165 199.094 43.0442C199.094 37.9457 203.286 34.8858 210.36 34.8858C217.382 34.8858 221.574 38.1594 221.574 43.7417H215.129C215.129 40.8973 213.399 39.2869 210.36 39.2869C207.478 39.2869 205.749 40.4681 205.749 42.4532C205.749 44.8684 208.631 45.3521 211.984 45.9418C216.648 46.7473 222.307 47.7133 222.307 54.0465ZM103.092 45.6739V62.366H96.1757V45.9958C96.1757 42.5072 94.3415 40.4678 91.2493 40.4678C87.7914 40.4678 85.7479 43.0975 85.7479 47.4985V62.366H78.8308V45.9958C78.8308 42.5072 77.0491 40.4678 73.9577 40.4678C70.447 40.4678 68.403 43.0975 68.403 47.4985V62.366H61.4872V35.4225H68.403V42.2415L68.3812 44.6486C69.0328 39.7867 72.3274 34.8858 76.9974 34.8858C81.8371 34.8858 84.9308 37.488 85.6058 42.2413L85.6937 44.6486C86.3141 39.7867 89.503 34.8858 94.0798 34.8858C99.7384 34.8858 103.092 38.8576 103.092 45.6739ZM163.197 45.9418V62.366H156.28V46.2641C156.28 42.6147 154.394 40.4678 151.145 40.4678C147.477 40.4678 145.329 43.2045 145.329 47.7673V62.366H138.413V35.4228H145.329V42.2413L145.32 44.6486C145.994 39.7967 149.287 34.8858 153.975 34.8858C159.791 34.8858 163.197 38.9651 163.197 45.9418ZM56.5693 46.7963H56.5663C55.8509 39.2314 51.1832 34.886 43.7745 34.886C35.5999 34.886 30.7795 40.0386 30.7795 48.8937C30.7795 57.6964 35.5999 62.9029 43.7745 62.9029C50.7424 62.9029 55.5042 59.3096 56.5939 53.179H49.8444C49.0513 55.8815 46.8655 57.5359 43.7743 57.5359C40.3442 57.5359 38.1187 54.3864 37.5861 50.025H56.6655V48.8937C56.6655 48.197 56.6324 47.5254 56.5728 46.8752L56.5693 46.7963ZM37.5711 46.7963C38.0988 42.4492 40.3284 40.1988 43.7745 40.1988C47.1694 40.1988 49.3985 42.4492 49.8768 46.7963H37.5711ZM133.495 46.7963H133.492C132.777 39.2314 128.11 34.886 120.7 34.886C112.526 34.886 107.705 40.0386 107.705 48.8937C107.705 57.6964 112.526 62.9029 120.7 62.9029C127.668 62.9029 132.43 59.3096 133.52 53.179H126.77C125.977 55.8815 123.791 57.5359 120.7 57.5359C117.27 57.5359 115.044 54.3864 114.512 50.025H133.591V48.8937C133.591 48.197 133.558 47.5259 133.499 46.8759L133.495 46.7963ZM114.497 46.7963C115.025 42.4492 117.254 40.1988 120.7 40.1988C124.095 40.1988 126.324 42.4492 126.802 46.7963H114.497ZM19.9637 35.4225H28.138V40.3068H19.9637V53.2951C19.9637 55.8175 21.5351 57.2677 24.1558 57.2677C25.4138 57.2677 26.7235 56.9449 27.6662 56.4084V61.6687C26.0943 62.4192 23.9458 62.9032 21.9549 62.9032C16.3482 62.9032 13.0468 59.6831 13.0468 54.2083V40.3068H8.69336V35.4225H13.0468V28.6387H19.9637V35.4225Z" fill="#A6A6A6"/>
</svg>
