<svg width="33" height="33" viewBox="0 0 33 33" fill="none" xmlns="http://www.w3.org/2000/svg">
<path d="M17.8978 2.74974C18.9003 2.74589 19.9029 2.75597 20.9051 2.77996L21.1717 2.78958C21.4794 2.80057 21.783 2.81431 22.1498 2.83079C23.6116 2.89949 24.609 3.1303 25.4842 3.46964C26.3909 3.8186 27.1548 4.2912 27.9187 5.05507C28.6171 5.74145 29.1576 6.57173 29.5027 7.48816C29.8421 8.36331 30.0729 9.3621 30.1416 10.8239C30.158 11.1893 30.1718 11.4943 30.1828 11.8021L30.191 12.0686C30.2154 13.0704 30.226 14.0725 30.2226 15.0746L30.224 16.0995V17.8992C30.2274 18.9018 30.2168 19.9043 30.1924 20.9066L30.1841 21.1731C30.1732 21.4809 30.1594 21.7845 30.1429 22.1513C30.0742 23.6131 29.8407 24.6105 29.5027 25.4857C29.1588 26.4031 28.6181 27.234 27.9187 27.9201C27.2317 28.6185 26.401 29.159 25.4842 29.5042C24.609 29.8435 23.6116 30.0743 22.1498 30.143C21.783 30.1595 21.4794 30.1733 21.1717 30.1842L20.9051 30.1925C19.9029 30.2169 18.9003 30.2274 17.8978 30.2241L16.8729 30.2255H15.0745C14.0719 30.2288 13.0694 30.2183 12.0671 30.1939L11.8006 30.1856C11.4745 30.1738 11.1484 30.1601 10.8224 30.1444C9.36062 30.0757 8.3632 29.8422 7.48669 29.5042C6.56989 29.1598 5.73947 28.6192 5.05359 27.9201C4.35436 27.2336 3.81331 26.4028 3.46816 25.4857C3.12882 24.6105 2.89801 23.6131 2.82932 22.1513C2.81402 21.8253 2.80028 21.4993 2.7881 21.1731L2.78123 20.9066C2.7559 19.9044 2.74445 18.9018 2.74689 17.8992V15.0746C2.74305 14.0725 2.75313 13.0704 2.77711 12.0686L2.78673 11.8021C2.79772 11.4943 2.81146 11.1893 2.82794 10.8239C2.89664 9.36073 3.12744 8.36468 3.46679 7.48816C3.81214 6.57128 4.35425 5.74123 5.05496 5.05644C5.74037 4.35681 6.57027 3.81526 7.48669 3.46964C8.3632 3.1303 9.35925 2.89949 10.8224 2.83079L11.8006 2.78958L12.0671 2.78271C13.0689 2.75739 14.071 2.74594 15.0731 2.74836L17.8978 2.74974ZM16.4854 9.61901C15.5753 9.60614 14.6716 9.77429 13.827 10.1137C12.9824 10.4531 12.2136 10.957 11.5654 11.5961C10.9173 12.2351 10.4026 12.9967 10.0512 13.8364C9.69993 14.6762 9.51902 15.5773 9.51902 16.4876C9.51902 17.3979 9.69993 18.299 10.0512 19.1388C10.4026 19.9785 10.9173 20.7401 11.5654 21.3791C12.2136 22.0182 12.9824 22.5221 13.827 22.8615C14.6716 23.2009 15.5753 23.3691 16.4854 23.3562C18.3073 23.3562 20.0545 22.6325 21.3427 21.3442C22.631 20.056 23.3547 18.3088 23.3547 16.4869C23.3547 14.6651 22.631 12.9178 21.3427 11.6296C20.0545 10.3414 18.3073 9.61901 16.4854 9.61901ZM16.4861 12.366C16.4859 12.3663 16.4861 12.3667 16.4864 12.3667C17.0336 12.3568 17.5772 12.4559 18.0857 12.6583C18.5945 12.8608 19.0578 13.1627 19.4485 13.5462C19.8393 13.9298 20.1497 14.3874 20.3617 14.8923C20.5736 15.3972 20.6828 15.9393 20.6829 16.4869C20.683 17.0345 20.574 17.5766 20.3622 18.0816C20.1504 18.5865 19.8402 19.0443 19.4495 19.428C19.0589 19.8117 18.5957 20.1137 18.087 20.3164C17.5783 20.5191 17.0343 20.6184 16.4868 20.6085C15.3937 20.6085 14.3454 20.1742 13.5724 19.4013C12.7995 18.6284 12.3652 17.58 12.3652 16.4869C12.3652 15.3938 12.7995 14.3455 13.5724 13.5725C14.3451 12.7998 15.3931 12.3656 16.4858 12.3653C16.4862 12.3653 16.4864 12.3658 16.4861 12.366ZM23.6982 7.55688C23.6982 7.55764 23.6976 7.55825 23.6968 7.55828C23.2541 7.57635 22.8355 7.76484 22.5285 8.08438C22.2212 8.40424 22.0495 8.8306 22.0495 9.27417C22.0495 9.71774 22.2212 10.1441 22.5285 10.464C22.8358 10.7838 23.255 10.9724 23.6982 10.9901C24.1536 10.9901 24.5904 10.8092 24.9125 10.4871C25.2346 10.1651 25.4155 9.72826 25.4155 9.2728C25.4155 8.81734 25.2346 8.38053 24.9125 8.05847C24.5908 7.73674 24.1545 7.55585 23.6996 7.55548C23.6988 7.55548 23.6982 7.55611 23.6982 7.55688Z" fill="#434148"/>
</svg>
