<svg width="25" height="25" viewBox="0 0 25 25" fill="none" xmlns="http://www.w3.org/2000/svg">
<path d="M7.02405 10.9869C8.46405 13.8169 10.7841 16.1269 13.6141 17.5769L15.8141 15.3769C16.0841 15.1069 16.4841 15.0169 16.8341 15.1369C17.9541 15.5069 19.1641 15.7069 20.4041 15.7069C20.9541 15.7069 21.4041 16.1569 21.4041 16.7069V20.1969C21.4041 20.7469 20.9541 21.1969 20.4041 21.1969C11.0141 21.1969 3.40405 13.5869 3.40405 4.19692C3.40405 3.64692 3.85405 3.19692 4.40405 3.19692H7.90405C8.45405 3.19692 8.90405 3.64692 8.90405 4.19692C8.90405 5.44692 9.10405 6.64692 9.47405 7.76692C9.58405 8.11692 9.50405 8.50692 9.22405 8.78692L7.02405 10.9869Z" fill="white"/>
</svg>
